<svg xmlns="http://www.w3.org/2000/svg" width="1000" height="1000" viewbox="0 0 1000 1000"><rect stroke="black" stroke-width="2" fill="none" x="147.5" y="64" width="47" height="59" id="animatedElementId"></rect><path stroke="red" stroke-width="2" fill="none" id="motionPath" d="M 253.5 183 L 254.5 182 L 255.5 182 L 256.5 181 L 257.5 180 L 258.5 180 L 260.5 180 L 261.5 179 L 262.5 178 L 265.5 178 L 267.5 177 L 269.5 177 L 271.5 176 L 273.5 176 L 276.5 175 L 279.5 175 L 282.5 175 L 285.5 175 L 289.5 174 L 293.5 174 L 297.5 173 L 301.5 173 L 307.5 173 L 312.5 172 L 318.5 172 L 323.5 171 L 329.5 170 L 334.5 170 L 341.5 170 L 348.5 169 L 355.5 169 L 361.5 168 L 370.5 167 L 378.5 167 L 386.5 167 L 394.5 166 L 402.5 166 L 411.5 165 L 421.5 165 L 430.5 164 L 439.5 164 L 449.5 164 L 458.5 164 L 467.5 163 L 477.5 162 L 486.5 162 L 496.5 161 L 505.5 161 L 514.5 160 L 524.5 159 L 533.5 158 L 543.5 157 L 552.5 157 L 562.5 156 L 571.5 155 L 580.5 154 L 589.5 153 L 598.5 152 L 606.5 151 L 614.5 150 L 622.5 150 L 631.5 149 L 637.5 148 L 644.5 147 L 651.5 146 L 657.5 145 L 662.5 145 L 668.5 144 L 672.5 143 L 676.5 143 L 681.5 142 L 684.5 141 L 687.5 141 L 689.5 140 L 691.5 140 L 693.5 140 L 695.5 140 L 696.5 140 L 696.5 139 L 697.5 139 L 698.5 139 L 698.5 138 L 697.5 138 L 696.5 137 L 694.5 137 L 693.5 137 L 692.5 136 L 690.5 136 L 688.5 136 L 686.5 135 L 684.5 135 L 682.5 135 L 680.5 135 L 677.5 135 L 674.5 135 L 670.5 134 L 667.5 134 L 663.5 134 L 659.5 134 L 655.5 133 L 651.5 133 L 647.5 133 L 641.5 133 L 636.5 133 L 631.5 133 L 625.5 133 L 620.5 133 L 614.5 133 L 609.5 133 L 603.5 133 L 597.5 133 L 591.5 133 L 584.5 133 L 577.5 134 L 572.5 135 L 565.5 136 L 558.5 137 L 552.5 138 L 546.5 139 L 540.5 140 L 533.5 141 L 528.5 142 L 522.5 143 L 516.5 145 L 510.5 147 L 504.5 149 L 499.5 151 L 494.5 153 L 490.5 155 L 485.5 157 L 481.5 158 L 477.5 160 L 474.5 162 L 471.5 163 L 468.5 165 L 466.5 166 L 464.5 168 L 463.5 168 L 461.5 170 L 460.5 172 L 459.5 172 L 459.5 173 L 459.5 175 L 459.5 176 L 460.5 176 L 461.5 178 L 462.5 179 L 464.5 180 L 466.5 180 L 468.5 181 L 470.5 183 L 473.5 184 L 476.5 185 L 479.5 187 L 483.5 188 L 488.5 190 L 492.5 191 L 497.5 193 L 503.5 195 L 508.5 196 L 515.5 197 L 522.5 199 L 529.5 200 L 536.5 201 L 544.5 202 L 552.5 203 L 560.5 204 L 570.5 205 L 579.5 206 L 589.5 207 L 598.5 208 L 608.5 209 L 617.5 210 L 628.5 211 L 638.5 212 L 648.5 213 L 657.5 214 L 668.5 215 L 678.5 216 L 687.5 218 L 696.5 219 L 706.5 220 L 715.5 221 L 725.5 222 L 734.5 223 L 742.5 224 L 751.5 225 L 759.5 226 L 765.5 226 L 772.5 227 L 779.5 227 L 786.5 228 L 791.5 228 L 797.5 228 L 801.5 228 L 805.5 228 L 809.5 228 L 812.5 229 L 815.5 229 L 817.5 229 L 820.5 229 L 821.5 229 L 822.5 229 L 823.5 229 L 824.5 229 L 825.5 229 L 824.5 229 L 823.5 229 L 822.5 229 L 821.5 229 L 820.5 229 L 818.5 229 L 817.5 229 L 815.5 229 L 813.5 229 L 811.5 229 L 809.5 229 L 806.5 229 L 803.5 229 L 800.5 229 L 797.5 229 L 793.5 229 L 789.5 229"></path><script>
            <![CDATA[
                this.play = true
                function animate(element) {
    const motionPath = document.getElementById('motionPath');
    const totalLength = motionPath.getTotalLength();
    distanceCovered = 0;
    let speed = this.currentSpeed;
    element.setAttribute("x", 0);
    element.setAttribute("y", 0);
    const moveAlongPath = () => {
      if (this.play) {
        const point = motionPath.getPointAtLength(distanceCovered);
        element.setAttribute("transform", `translate(${point.x} ${point.y})`);
        speed = this.currentSpeed;
        distanceCovered += speed;
        if (distanceCovered <= totalLength) {
          requestAnimationFrame(moveAlongPath);
        } else {
          // console.log(this.animations)
          distanceCovered = 0;
          requestAnimationFrame(moveAlongPath);
          if (!isAnimationSaved) {
            isAnimationSaved = true;
            this.saveAnimatedSvg();
          }
        }
      } else {
        requestAnimationFrame(moveAlongPath);
      }
    };
    moveAlongPath();
  }
                const animatedElement = document.getElementById('animatedElementId');
                animate(animatedElement);
            ]]>
        </script></svg>