<svg xmlns="http://www.w3.org/2000/svg" width="1000" height="1000" viewbox="0 0 1000 1000"><rect stroke="black" stroke-width="2" fill="none" x="189.5" y="37" width="86" height="92" id="animatedElementId"></rect><path stroke="red" stroke-width="2" fill="none" id="motionPath" d="M 484.5 164 L 483.5 164 L 482.5 164 L 481.5 164 L 480.5 164 L 481.5 164 L 482.5 164 L 483.5 164 L 484.5 164 L 485.5 164 L 486.5 164 L 487.5 164 L 488.5 164 L 489.5 164 L 491.5 164 L 492.5 164 L 493.5 164 L 495.5 164 L 497.5 164 L 499.5 164 L 501.5 164 L 503.5 164 L 506.5 164 L 509.5 164 L 512.5 164 L 515.5 164 L 519.5 164 L 523.5 164 L 527.5 164 L 532.5 164 L 536.5 163 L 540.5 163 L 546.5 163 L 551.5 163 L 556.5 163 L 562.5 163 L 567.5 163 L 573.5 163 L 578.5 163 L 584.5 163 L 589.5 163 L 594.5 163 L 600.5 163 L 605.5 163 L 611.5 163 L 617.5 163 L 623.5 163 L 628.5 163 L 634.5 163 L 639.5 164 L 645.5 165 L 651.5 166 L 655.5 166 L 659.5 167 L 664.5 168 L 668.5 169 L 672.5 170 L 675.5 171 L 679.5 172 L 682.5 174 L 684.5 175 L 687.5 177 L 689.5 178 L 691.5 179 L 692.5 181 L 694.5 182 L 695.5 183 L 697.5 185 L 698.5 186 L 699.5 188 L 700.5 190 L 700.5 192 L 700.5 193 L 700.5 195 L 700.5 198 L 700.5 200 L 700.5 202 L 700.5 204 L 700.5 206 L 699.5 208 L 698.5 211 L 696.5 213 L 695.5 215 L 693.5 217 L 691.5 220 L 688.5 223 L 686.5 227 L 683.5 229 L 681.5 231 L 677.5 235 L 674.5 238 L 670.5 241 L 667.5 244 L 663.5 246 L 659.5 249 L 654.5 253 L 649.5 256 L 644.5 259 L 638.5 263 L 633.5 266 L 627.5 269 L 621.5 271 L 615.5 274 L 609.5 277 L 603.5 279 L 597.5 281 L 592.5 283 L 586.5 285 L 580.5 286 L 575.5 287 L 569.5 288 L 563.5 289 L 558.5 290 L 552.5 290 L 548.5 290 L 543.5 290 L 537.5 290 L 533.5 290 L 529.5 290 L 525.5 290 L 521.5 290 L 516.5 289 L 512.5 288 L 508.5 287 L 505.5 286 L 502.5 286 L 498.5 285 L 496.5 284 L 494.5 283 L 492.5 283 L 490.5 282 L 487.5 281 L 486.5 281 L 485.5 279 L 483.5 278 L 483.5 277 L 482.5 276 L 481.5 274 L 481.5 273 L 480.5 272 L 479.5 270 L 479.5 269 L 479.5 267 L 479.5 265 L 478.5 262 L 478.5 260 L 478.5 258 L 478.5 256 L 478.5 254 L 478.5 252 L 478.5 250 L 478.5 247 L 479.5 244 L 480.5 242 L 480.5 240 L 481.5 238 L 483.5 235 L 484.5 233 L 486.5 231 L 487.5 229 L 489.5 227 L 490.5 226 L 499.5 219 L 501.5 219 L 503.5 218 L 505.5 217 L 508.5 216 L 510.5 216 L 512.5 215 L 514.5 214 L 517.5 213 L 520.5 213 L 523.5 213 L 525.5 213 L 528.5 213 L 531.5 213 L 534.5 213 L 537.5 213 L 540.5 213 L 543.5 213 L 545.5 213 L 548.5 213 L 550.5 213 L 553.5 213 L 555.5 213 L 558.5 214 L 560.5 215 L 565.5 216 L 567.5 217 L 569.5 218 L 571.5 218 L 573.5 219 L 576.5 221 L 577.5 222 L 579.5 223 L 581.5 224 L 583.5 226 L 584.5 226 L 587.5 227 L 589.5 229 L 590.5 230 L 592.5 231 L 593.5 233 L 594.5 234 L 596.5 236 L 597.5 237 L 599.5 239 L 600.5 240 L 602.5 241 L 602.5 243 L 604.5 244 L 604.5 246 L 606.5 247 L 607.5 248 L 607.5 250 L 608.5 251 L 609.5 252 L 609.5 254 L 610.5 255 L 610.5 256 L 611.5 257 L 612.5 258 L 612.5 259 L 613.5 260 L 614.5 260 L 614.5 261 L 615.5 261 L 615.5 262 L 616.5 263 L 616.5 264 L 616.5 265 L 617.5 265 L 617.5 266 L 618.5 266 L 619.5 266 L 620.5 266 L 620.5 265 L 620.5 264"></path><script>
            <![CDATA[
                this.play = true
                function animate(element) {
    const motionPath = document.getElementById('motionPath');
    const totalLength = motionPath.getTotalLength();
    distanceCovered = 0;
    const speed = 5;
    element.setAttribute("x", 0);
    element.setAttribute("y", 0);
    const moveAlongPath = () => {
      if (this.play) {
        const point = motionPath.getPointAtLength(distanceCovered);
        element.setAttribute("transform", `translate(${point.x} ${point.y})`);
        distanceCovered += speed;
        if (distanceCovered <= totalLength) {
          requestAnimationFrame(moveAlongPath);
        } else {
          // console.log(this.animations)
          distanceCovered = 0;
          requestAnimationFrame(moveAlongPath);
          this.saveAnimatedSvg();
        }
      } else {
        requestAnimationFrame(moveAlongPath);
      }
    };
    moveAlongPath();
  }
                const animatedElement = document.getElementById('animatedElementId');
                animate(animatedElement);
            ]]>
        </script></svg>