<svg xmlns="http://www.w3.org/2000/svg" width="1000" height="1000" viewbox="0 0 1000 1000"><rect stroke="black" stroke-width="2" fill="none" x="125" y="55" width="68" height="74" id="animatedElementId"></rect><path stroke="red" stroke-width="2" fill="none" id="motionPath" d="M 453 57 L 453 54 L 453 53 L 453 52 L 455 52 L 460 51 L 469 50 L 486 50 L 508 54 L 533 61 L 568 76 L 591 89 L 603 102 L 607 113 L 603 123 L 591 131 L 568 139 L 541 146 L 511 151 L 480 159 L 455 170 L 439 179 L 432 186 L 433 191 L 442 194 L 469 197 L 510 202 L 559 208 L 607 216 L 642 227 L 652 233 L 651 239 L 640 252 L 623 263 L 590 279 L 554 293 L 518 308 L 487 322 L 473 329 L 470 334 L 473 338 L 484 344 L 501 352 L 521 361 L 540 371 L 549 378 L 552 385 L 551 393 L 547 399 L 537 404 L 520 412 L 504 417 L 488 421 L 476 419 L 468 415"></path><script>
            <![CDATA[
                animate(element) {
    const motionPath = document.getElementById('motionPath');
    const totalLength = motionPath.getTotalLength();
    let distanceCovered = 0;
    const speed = 5;
    const moveAlongPath = () => {
      // if (!this.paused) {
      const point = motionPath.getPointAtLength(distanceCovered);
      element.setAttribute("transform", `translate(${point.x} ${point.y})`);
      distanceCovered += speed;
      if (distanceCovered <= totalLength) {
        requestAnimationFrame(moveAlongPath);
      } else {
        // console.log(this.animations)
        this.saveAnimatedSvg();
      }
      // } else {
      //     requestAnimationFrame(moveAlongPath);
      // }
    };

    moveAlongPath();
  }
    
                const animatedElement = document.getElementById('animatedElementId');
                animate(animatedElement);
            ]]>
</script></svg>