<svg xmlns="http://www.w3.org/2000/svg" width="1000" height="1000" viewbox="0 0 1000 1000"><path stroke="#000000" stroke-width="2" fill="none" d="M 151 70 L 154 71 L 157 71 L 160 71 L 163 71 L 165 71 L 167 71 L 169 71 L 171 71 L 173 71 L 175 71 L 177 71 L 179 71 L 181 71 L 183 71 L 184 71 L 186 71 L 188 71 L 190 71 L 191 71 L 192 71 L 195 71 L 197 71 L 198 71 L 199 71 L 201 71 L 202 71 L 203 71 L 205 70 L 206 70 L 207 70 L 208 70 L 210 69 L 211 69 L 212 69 L 214 68 L 215 68 L 217 68 L 219 68 L 221 68 L 222 67 L 223 67 L 225 67 L 226 67 L 228 67 L 229 66 L 232 66 L 234 66 L 235 65 L 236 65 L 238 65 L 241 65 L 243 65 L 245 65 L 246 65 L 248 65 L 250 65 L 252 65 L 254 65 L 256 65 L 258 65 L 259 65 L 262 65 L 264 65 L 266 65 L 267 65 L 269 65 L 271 65 L 274 65 L 276 65 L 278 65 L 280 65 L 281 65 L 283 65 L 286 65 L 288 65 L 290 65 L 292 65 L 294 65 L 295 65 L 298 65 L 300 65 L 302 65 L 304 66 L 305 67 L 307 67 L 309 67 L 311 67 L 312 67 L 319 69 L 321 70 L 322 70 L 323 70 L 324 70 L 326 70 L 327 70 L 328 70 L 330 70 L 331 70 L 332 70 L 334 70 L 335 70 L 336 70 L 337 71 L 339 71 L 340 71 L 341 71" data-tool="true" id="animatedElementId"></path><path stroke="#8DADFF" stroke-width="2" fill="none" id="motionPath" d="M 311 92 L 311 93 L 312 94 L 312 95 L 313 96 L 314 96 L 314 97 L 315 97 L 316 97 L 317 97 L 319 97 L 320 97 L 322 97 L 326 95 L 328 94 L 331 93 L 335 91 L 338 90 L 340 90 L 342 89 L 344 88 L 346 87 L 349 87 L 352 86 L 355 84 L 358 83 L 361 83 L 364 82 L 369 81 L 372 80 L 376 79 L 380 79 L 383 78 L 388 77 L 392 76 L 397 75 L 401 74 L 405 73 L 411 73 L 416 72 L 422 72 L 427 72 L 432 72 L 438 72 L 443 72 L 449 72 L 454 72 L 460 72 L 465 72 L 470 72 L 476 72 L 481 72 L 487 72 L 492 72 L 498 72 L 502 72 L 506 72 L 512 73 L 516 73 L 521 73 L 525 73 L 529 73 L 534 73 L 538 74 L 542 74 L 545 74 L 548 74 L 551 74 L 554 75 L 557 76 L 560 76 L 562 76 L 565 76 L 567 77 L 569 78 L 571 78 L 572 78 L 574 79 L 575 79 L 576 79 L 577 80 L 578 80 L 579 80 L 580 80 L 580 81 L 580 82"></path><script>
            <![CDATA[
                this.play = true
                this.currentSpeed = 11
                let distanceCovered = 0;
                let isAnimationSaved = false;
                let isUpdateTime = false
                function animate(element) {
    const motionPath = document.getElementById('motionPath');
    const totalLength = motionPath.getTotalLength();
    distanceCovered = 0;
    let speed = this.currentSpeed;
    element.setAttribute("x", 0);
    element.setAttribute("y", 0);
    if (element.hasAttribute("r")) {
      element.setAttribute("cx", 0);
      element.setAttribute("cy", 0);
    }
    const moveAlongPath = () => {
      if (this.play) {
        const point = motionPath.getPointAtLength(distanceCovered);
        if (element.hasAttribute("d") || element.hasAttribute("points")) {
          const initialX = element.getPointAtLength(0).x;
          const initialY = element.getPointAtLength(0).y;
          element.setAttribute("transform", `translate(${point.x - initialX} ${point.y - initialY})`);
        } else {
          element.setAttribute("transform", `translate(${point.x} ${point.y})`);
        }
        speed = this.currentSpeed;
        distanceCovered += speed;
        if (distanceCovered <= totalLength) {
          requestAnimationFrame(moveAlongPath);
        } else {
          distanceCovered = 0;
          const newStartTime = Date.now();
          if (isUpdateTime) {
            _store_animationToolState__WEBPACK_IMPORTED_MODULE_1__["default"].setStartTime(newStartTime);
          }
          requestAnimationFrame(moveAlongPath);
          if (_store_animationToolState__WEBPACK_IMPORTED_MODULE_1__["default"].isAnimationSaved) {
            console.log("isSave");
            this.saveAnimatedSvg();
            _store_animationToolState__WEBPACK_IMPORTED_MODULE_1__["default"].isAnimationSaved = false;
          }
        }
        motionPath.style.display = "none";
      } else {
        requestAnimationFrame(moveAlongPath);
        motionPath.style.display = "block";
      }
    };
    moveAlongPath();
  }
                const animatedElement = document.getElementById('animatedElementId');
                animate(animatedElement);
            ]]>
        </script></svg>