<svg xmlns="http://www.w3.org/2000/svg" width="1000" height="1000" viewbox="0 0 1000 1000"><rect stroke="black" stroke-width="2" fill="none" x="56.5" y="47" width="110" height="94" id="animatedElementId"></rect><path stroke="red" stroke-width="2" fill="none" id="motionPath" d="M 566.5 43 L 567.5 43 L 568.5 43 L 569.5 43 L 570.5 43 L 571.5 43 L 572.5 43 L 573.5 43 L 574.5 43 L 576.5 43 L 577.5 43 L 578.5 43 L 580.5 43 L 582.5 43 L 584.5 43 L 587.5 43 L 590.5 43 L 595.5 43 L 599.5 43 L 603.5 44 L 609.5 45 L 614.5 45 L 620.5 46 L 627.5 46 L 633.5 46 L 640.5 47 L 648.5 47 L 656.5 48 L 664.5 48 L 673.5 49 L 681.5 50 L 690.5 50 L 700.5 51 L 709.5 51 L 718.5 51 L 728.5 51 L 737.5 52 L 746.5 52 L 756.5 52 L 765.5 52 L 774.5 52 L 784.5 53 L 793.5 54 L 803.5 54 L 812.5 54 L 821.5 55 L 831.5 56 L 839.5 57 L 847.5 57 L 855.5 57 L 863.5 57 L 870.5 57 L 876.5 57 L 882.5 58 L 887.5 58 L 892.5 58 L 896.5 58 L 899.5 59 L 902.5 60 L 905.5 60 L 907.5 61 L 908.5 61 L 910.5 61 L 911.5 61 L 912.5 61 L 912.5 62 L 912.5 63 L 911.5 63 L 910.5 64 L 909.5 65 L 907.5 65 L 906.5 66 L 904.5 67 L 901.5 68 L 898.5 68 L 895.5 69 L 892.5 70 L 889.5 71 L 885.5 72 L 880.5 72 L 875.5 73 L 869.5 74 L 862.5 75 L 855.5 76 L 849.5 77 L 840.5 78 L 831.5 79 L 822.5 80 L 812.5 81 L 801.5 82 L 791.5 84 L 779.5 85 L 767.5 86 L 755.5 87 L 741.5 88 L 728.5 89 L 715.5 90 L 701.5 91 L 687.5 92 L 672.5 94 L 657.5 95 L 643.5 96 L 628.5 97 L 614.5 98 L 599.5 99 L 582.5 100 L 565.5 102 L 551.5 103 L 536.5 104 L 521.5 105 L 508.5 106 L 493.5 107 L 480.5 108 L 468.5 109 L 456.5 110 L 444.5 110 L 432.5 112 L 421.5 113 L 411.5 114 L 401.5 114 L 392.5 115 L 384.5 115 L 376.5 116 L 369.5 117 L 362.5 117 L 357.5 117 L 351.5 117 L 347.5 118 L 343.5 118 L 340.5 118 L 337.5 118 L 334.5 118 L 333.5 119 L 332.5 119 L 331.5 119 L 330.5 119 L 330.5 120 L 331.5 120 L 332.5 120 L 334.5 120 L 335.5 120 L 336.5 121 L 338.5 121 L 340.5 121 L 343.5 122 L 346.5 122 L 349.5 122 L 355.5 122 L 363.5 123 L 368.5 123 L 374.5 123 L 379.5 124 L 385.5 124 L 392.5 124 L 398.5 124 L 405.5 124 L 412.5 124 L 419.5 124 L 427.5 124 L 435.5 124 L 443.5 124 L 451.5 124 L 459.5 124 L 468.5 124 L 477.5 124 L 487.5 124 L 496.5 124 L 505.5 124 L 515.5 124 L 524.5 124 L 532.5 124 L 541.5 124 L 549.5 124 L 557.5 124 L 565.5 124 L 573.5 124 L 581.5 124 L 588.5 124 L 595.5 124 L 602.5 124 L 607.5 124 L 612.5 124 L 620.5 126 L 623.5 126 L 625.5 127 L 627.5 127 L 629.5 127 L 630.5 128 L 631.5 129 L 632.5 129 L 633.5 129 L 633.5 130 L 632.5 130 L 632.5 131 L 630.5 132 L 629.5 132 L 628.5 133 L 625.5 134 L 623.5 134 L 620.5 135 L 617.5 136 L 614.5 137 L 610.5 139 L 605.5 140 L 600.5 142 L 595.5 144 L 589.5 145 L 582.5 146 L 575.5 147 L 568.5 148 L 560.5 150 L 552.5 151 L 544.5 152 L 536.5 153 L 526.5 154 L 517.5 155 L 507.5 157 L 496.5 158 L 486.5 159 L 475.5 161 L 464.5 162 L 454.5 163 L 442.5 164 L 429.5 165 L 417.5 166 L 405.5 167 L 393.5 168 L 381.5 169 L 369.5 170 L 359.5 171 L 347.5 172 L 336.5 174 L 325.5 175 L 314.5 176 L 304.5 177 L 293.5 179 L 283.5 180 L 274.5 181 L 266.5 182 L 259.5 183 L 252.5 184 L 246.5 185 L 241.5 186 L 236.5 187 L 232.5 188 L 229.5 188 L 227.5 189 L 225.5 190 L 223.5 191 L 222.5 191 L 221.5 191 L 222.5 191 L 223.5 191 L 224.5 191 L 225.5 191 L 228.5 191 L 230.5 191 L 232.5 191 L 234.5 191 L 237.5 191 L 240.5 191 L 243.5 190 L 247.5 190 L 252.5 189 L 257.5 189 L 263.5 188 L 268.5 188 L 274.5 187 L 280.5 187 L 288.5 187 L 295.5 186 L 303.5 186 L 313.5 186 L 322.5 186 L 331.5 185 L 342.5 185 L 353.5 185 L 363.5 184 L 374.5 184 L 385.5 184 L 395.5 184 L 406.5 184 L 418.5 184 L 429.5 184 L 439.5 184 L 451.5 184 L 463.5 184 L 475.5 184 L 486.5 184 L 496.5 185 L 508.5 185 L 519.5 185 L 530.5 186 L 540.5 186 L 551.5 187 L 560.5 187 L 570.5 188 L 579.5 188 L 587.5 189 L 595.5 190 L 603.5 190 L 610.5 191 L 617.5 192 L 623.5 192 L 628.5 193 L 634.5 194 L 638.5 194 L 641.5 195 L 644.5 196 L 647.5 197 L 649.5 197 L 652.5 198 L 653.5 199 L 654.5 199 L 655.5 199 L 656.5 199 L 656.5 200 L 656.5 201 L 655.5 202 L 654.5 203 L 653.5 203 L 652.5 204 L 649.5 205 L 647.5 205 L 645.5 206 L 642.5 207 L 639.5 208 L 636.5 208 L 631.5 209 L 627.5 210 L 621.5 211 L 616.5 212 L 609.5 213 L 602.5 214 L 595.5 215 L 587.5 215 L 579.5 216 L 571.5 216 L 562.5 217 L 552.5 217 L 543.5 217 L 532.5 218 L 522.5 218 L 511.5 218 L 500.5 219 L 489.5 220 L 479.5 220 L 468.5 221 L 457.5 222 L 447.5 222 L 437.5 224 L 427.5 225 L 417.5 226 L 408.5 227 L 398.5 228 L 390.5 229 L 382.5 230 L 374.5 231 L 366.5 232 L 359.5 233 L 353.5 233 L 348.5 234 L 342.5 235 L 338.5 236 L 335.5 236 L 331.5 237 L 329.5 238 L 327.5 239 L 326.5 239 L 324.5 240 L 323.5 240 L 323.5 241 L 323.5 242 L 323.5 243 L 325.5 243 L 326.5 244 L 327.5 245 L 329.5 245 L 331.5 246 L 333.5 247 L 336.5 248 L 339.5 248 L 342.5 249 L 345.5 250 L 350.5 251 L 354.5 252 L 358.5 253 L 364.5 254 L 370.5 254 L 375.5 255 L 382.5 255 L 389.5 255 L 395.5 255 L 404.5 256 L 412.5 256 L 420.5 256 L 428.5 256 L 437.5 256 L 446.5 256 L 456.5 257 L 465.5 257 L 476.5 259 L 486.5 259 L 497.5 260 L 508.5 261 L 519.5 261 L 529.5 261 L 540.5 262 L 551.5 262 L 560.5 262 L 569.5 263 L 580.5 264 L 589.5 264 L 599.5 264 L 608.5 264 L 617.5 264 L 627.5 264 L 635.5 264 L 643.5 265 L 651.5 266 L 658.5 266 L 664.5 266 L 670.5 267 L 676.5 267 L 681.5 267 L 685.5 268 L 688.5 268 L 691.5 268 L 693.5 268 L 696.5 268 L 697.5 269 L 698.5 269 L 699.5 269 L 700.5 269 L 699.5 269 L 698.5 269 L 697.5 269 L 695.5 269 L 692.5 270 L 690.5 270 L 687.5 270 L 683.5 270 L 679.5 271 L 674.5 271 L 668.5 271 L 661.5 271 L 655.5 271 L 647.5 271 L 639.5 271 L 629.5 271 L 620.5 271 L 609.5 271 L 599.5 271 L 588.5 271 L 577.5 271 L 566.5 271 L 554.5 271 L 540.5 271 L 527.5 271 L 514.5 271 L 501.5 271 L 487.5 270 L 474.5 268 L 459.5 268 L 445.5 268 L 430.5 267 L 416.5 267 L 401.5 267 L 388.5 267 L 375.5 267 L 362.5 267 L 348.5 266 L 336.5 266 L 324.5 266 L 313.5 266 L 302.5 266 L 291.5 266 L 282.5 266 L 273.5 266 L 265.5 266 L 257.5 266 L 250.5 266 L 243.5 266 L 238.5 266 L 232.5 267 L 228.5 268 L 224.5 269 L 222.5 269 L 220.5 269 L 218.5 270 L 217.5 271 L 215.5 271 L 214.5 271 L 214.5 272 L 215.5 273 L 216.5 273 L 217.5 273 L 219.5 274 L 220.5 275 L 222.5 275 L 225.5 276 L 228.5 277 L 231.5 278 L 234.5 278 L 238.5 279 L 242.5 280 L 248.5 281 L 254.5 282 L 259.5 283 L 266.5 284 L 273.5 285 L 280.5 286 L 288.5 287 L 296.5 288 L 306.5 289 L 315.5 290 L 325.5 291 L 335.5 292 L 346.5 293 L 357.5 294 L 368.5 295 L 378.5 296 L 389.5 297 L 401.5 299 L 413.5 300 L 425.5 301 L 437.5 302 L 449.5 303 L 461.5 304 L 472.5 306 L 484.5 308 L 495.5 311 L 506.5 313 L 517.5 314 L 527.5 316 L 538.5 317 L 549.5 318 L 558.5 320 L 568.5 321 L 577.5 322 L 587.5 323 L 595.5 325 L 602.5 326 L 609.5 327 L 616.5 328 L 621.5 329 L 626.5 330 L 630.5 331 L 634.5 332 L 637.5 333 L 641.5 334 L 643.5 334 L 644.5 335 L 645.5 336 L 646.5 336 L 647.5 337 L 648.5 337 L 648.5 338 L 648.5 339 L 647.5 339 L 646.5 340 L 644.5 340 L 643.5 341 L 641.5 342 L 639.5 342 L 637.5 342 L 634.5 342 L 630.5 343 L 626.5 344 L 622.5 345 L 618.5 345 L 612.5 346 L 607.5 346 L 600.5 346 L 593.5 347 L 586.5 348 L 578.5 348 L 570.5 348 L 561.5 349 L 551.5 349 L 542.5 349 L 533.5 349 L 523.5 350 L 513.5 350 L 502.5 350 L 491.5 351 L 481.5 352 L 470.5 353 L 459.5 354 L 448.5 355 L 438.5 355 L 427.5 356 L 416.5 357 L 406.5 357 L 396.5 359 L 387.5 360 L 377.5 361 L 368.5 362 L 360.5 363 L 353.5 364 L 346.5 365 L 339.5 366 L 333.5 367 L 328.5 368 L 322.5 368 L 318.5 369 L 315.5 370 L 312.5 371 L 309.5 372 L 307.5 372 L 306.5 372 L 305.5 373 L 304.5 373 L 303.5 373 L 302.5 373 L 302.5 374 L 303.5 374 L 304.5 375 L 306.5 375 L 307.5 376 L 308.5 377 L 310.5 377 L 312.5 378 L 314.5 378 L 316.5 379 L 318.5 380 L 321.5 381 L 325.5 381 L 328.5 382 L 331.5 383 L 335.5 384 L 339.5 385 L 344.5 385 L 348.5 386 L 352.5 387 L 358.5 388 L 364.5 389 L 369.5 390 L 376.5 391 L 383.5 392 L 390.5 393 L 397.5 394 L 404.5 395 L 411.5 396 L 418.5 398 L 425.5 400 L 432.5 401 L 439.5 403 L 446.5 405 L 452.5 406 L 459.5 408 L 466.5 409 L 473.5 411 L 480.5 412 L 486.5 414 L 497.5 417 L 503.5 418 L 509.5 419 L 513.5 419 L 517.5 421 L 522.5 423 L 525.5 424 L 528.5 425 L 530.5 425 L 533.5 426 L 535.5 427 L 536.5 427 L 537.5 428 L 539.5 429 L 540.5 430 L 541.5 430 L 541.5 431 L 541.5 432 L 540.5 432 L 540.5 433 L 539.5 433 L 539.5 434 L 538.5 434 L 538.5 435 L 537.5 435 L 536.5 436 L 535.5 436 L 534.5 437 L 533.5 437 L 532.5 437"></path><script>
            <![CDATA[
                animate(element) {
    const motionPath = document.getElementById('motionPath');
    const totalLength = motionPath.getTotalLength();
    let distanceCovered = 0;
    const speed = 5;
    const moveAlongPath = () => {
      if (this.play) {
        const point = motionPath.getPointAtLength(distanceCovered);
        element.setAttribute("transform", `translate(${point.x} ${point.y})`);
        distanceCovered += speed;
        if (distanceCovered <= totalLength) {
          requestAnimationFrame(moveAlongPath);
        } else {
          // console.log(this.animations)
          this.saveAnimatedSvg();
        }
      } else {
        requestAnimationFrame(moveAlongPath);
      }
    };
    moveAlongPath();
  }

                const animatedElement = document.getElementById('animatedElementId');
                animate(animatedElement);
            ]]>
        </script></svg>