<svg xmlns="http://www.w3.org/2000/svg" width="1000" height="1000" viewbox="0 0 1000 1000"><polygon stroke="black" stroke-width="2" fill="none" points="21.5,65 59.5,169 144.5,158 550.5,188" id="animatedElementId"></polygon><path stroke="red" stroke-width="2" fill="none" id="motionPath" d="M 720.5 133 L 739.5 129 L 758.5 123 L 770.5 118 L 779.5 113 L 786.5 107 L 791.5 102 L 795.5 96 L 798.5 90 L 800.5 86 L 801.5 82 L 802.5 78 L 803.5 75 L 803.5 70 L 803.5 63 L 802.5 55 L 799.5 46 L 797.5 39 L 793.5 34 L 788.5 31 L 783.5 28 L 779.5 26 L 776.5 26 L 772.5 26 L 766.5 27 L 762.5 29 L 757.5 34 L 749.5 39 L 740.5 49 L 733.5 60 L 723.5 73 L 714.5 83 L 707.5 93 L 703.5 102 L 699.5 110 L 697.5 117 L 695.5 126 L 694.5 131 L 694.5 134 L 694.5 137 L 694.5 139 L 694.5 140 L 694.5 142 L 694.5 143 L 694.5 145 L 694.5 146 L 694.5 147"></path><script>
            <![CDATA[
                this.play = true
                function animate(element) {
    const motionPath = document.getElementById('motionPath');
    const totalLength = motionPath.getTotalLength();
    distanceCovered = 0;
    const speed = 5;
    element.setAttribute("x", 0);
    element.setAttribute("y", 0);
    const moveAlongPath = () => {
      if (this.play) {
        const point = motionPath.getPointAtLength(distanceCovered);
        element.setAttribute("transform", `translate(${point.x} ${point.y})`);
        distanceCovered += speed;
        if (distanceCovered <= totalLength) {
          requestAnimationFrame(moveAlongPath);
        } else {
          // console.log(this.animations)
          distanceCovered = 0;
          requestAnimationFrame(moveAlongPath);
          if (!isAnimationSaved) {
            isAnimationSaved = true;
            this.saveAnimatedSvg();
          }
        }
      } else {
        requestAnimationFrame(moveAlongPath);
      }
    };
    moveAlongPath();
  }
                const animatedElement = document.getElementById('animatedElementId');
                animate(animatedElement);
            ]]>
        </script></svg>