<svg xmlns="http://www.w3.org/2000/svg" width="1000" height="1000" viewbox="0 0 1000 1000"><rect stroke="black" stroke-width="2" fill="none" x="33.5" y="45" width="77" height="64" id="animatedElementId"></rect><path stroke="red" stroke-width="2" fill="none" id="motionPath" d="M 414.5 58 L 415.5 58 L 416.5 58 L 417.5 58 L 418.5 58 L 419.5 58 L 420.5 58 L 421.5 58 L 422.5 58 L 424.5 58 L 425.5 58 L 426.5 58 L 428.5 58 L 429.5 58 L 430.5 58 L 431.5 58 L 434.5 58 L 436.5 58 L 438.5 58 L 440.5 58 L 442.5 58 L 444.5 58 L 446.5 58 L 449.5 58 L 452.5 58 L 455.5 58 L 459.5 58 L 462.5 58 L 464.5 58 L 467.5 58 L 471.5 58 L 476.5 58 L 479.5 57 L 483.5 57 L 487.5 56 L 491.5 56 L 495.5 56 L 501.5 56 L 505.5 56 L 510.5 56 L 516.5 56 L 521.5 56 L 527.5 56 L 532.5 56 L 539.5 56 L 544.5 56 L 551.5 56 L 558.5 56 L 565.5 55 L 571.5 55 L 578.5 55 L 585.5 55 L 591.5 55 L 598.5 55 L 605.5 55 L 612.5 54 L 619.5 54 L 627.5 54 L 635.5 54 L 641.5 54 L 649.5 53 L 656.5 53 L 663.5 53 L 670.5 53 L 678.5 52 L 685.5 52 L 691.5 52 L 698.5 52 L 705.5 52 L 711.5 52 L 718.5 52 L 725.5 52 L 732.5 52 L 738.5 52 L 745.5 52 L 750.5 52 L 756.5 52 L 767.5 52 L 772.5 52 L 777.5 53 L 781.5 53 L 785.5 53 L 789.5 53 L 793.5 54 L 796.5 54 L 799.5 54 L 802.5 55 L 805.5 55 L 808.5 55 L 811.5 55 L 813.5 55 L 815.5 56 L 816.5 56 L 818.5 56 L 819.5 57 L 820.5 57 L 821.5 58 L 822.5 58 L 823.5 59 L 823.5 60 L 823.5 61 L 823.5 62 L 823.5 63 L 823.5 64 L 823.5 65 L 823.5 66 L 823.5 67 L 822.5 67 L 822.5 68 L 822.5 69 L 821.5 69 L 821.5 71 L 820.5 71 L 819.5 72 L 818.5 74 L 817.5 75 L 817.5 76 L 816.5 77 L 815.5 77 L 815.5 78 L 814.5 79 L 813.5 80 L 812.5 81 L 810.5 82 L 809.5 82 L 807.5 84 L 806.5 84 L 805.5 85 L 803.5 87 L 801.5 87 L 799.5 88 L 797.5 89 L 794.5 90 L 792.5 90 L 790.5 92 L 788.5 92 L 785.5 93 L 782.5 94 L 779.5 95 L 775.5 96 L 772.5 96 L 768.5 97 L 764.5 97 L 760.5 98 L 755.5 98 L 751.5 98 L 747.5 98 L 743.5 98 L 738.5 98 L 732.5 98 L 727.5 98 L 721.5 98 L 716.5 98 L 709.5 98 L 702.5 98 L 697.5 98 L 690.5 98 L 684.5 98 L 677.5 98 L 670.5 98 L 663.5 98 L 657.5 98 L 650.5 98 L 643.5 98 L 637.5 98 L 630.5 98 L 624.5 98 L 618.5 98 L 612.5 98 L 606.5 98 L 600.5 98 L 595.5 98 L 589.5 98 L 584.5 98 L 578.5 98 L 573.5 98 L 568.5 98 L 562.5 98 L 557.5 98 L 553.5 98 L 548.5 98 L 544.5 98 L 540.5 98 L 536.5 99 L 533.5 99 L 530.5 99 L 527.5 99 L 524.5 100 L 521.5 100 L 519.5 100 L 517.5 100 L 514.5 100 L 512.5 100 L 510.5 100 L 509.5 101 L 507.5 101 L 506.5 101 L 505.5 101 L 504.5 102 L 503.5 102 L 502.5 102 L 501.5 103 L 500.5 103 L 500.5 104 L 500.5 105 L 500.5 106 L 500.5 107 L 500.5 108 L 501.5 109 L 501.5 110 L 502.5 110 L 503.5 111 L 504.5 112 L 504.5 113 L 505.5 113 L 505.5 114 L 506.5 114 L 506.5 115 L 507.5 116 L 509.5 118 L 510.5 119 L 511.5 120 L 513.5 121 L 514.5 122 L 516.5 123 L 518.5 125 L 520.5 126 L 522.5 127 L 524.5 128 L 527.5 130 L 529.5 131 L 532.5 132 L 535.5 133 L 538.5 134 L 541.5 134 L 544.5 135 L 549.5 136 L 553.5 137 L 557.5 138 L 562.5 139 L 566.5 140 L 570.5 140 L 576.5 140 L 580.5 140 L 585.5 140 L 591.5 140 L 596.5 140 L 602.5 140 L 607.5 140 L 613.5 140 L 618.5 140 L 623.5 140 L 630.5 140 L 636.5 140 L 642.5 140 L 648.5 140 L 654.5 140 L 660.5 140 L 667.5 140 L 672.5 140 L 677.5 140 L 683.5 140 L 688.5 140 L 694.5 140 L 699.5 140 L 705.5 140 L 710.5 140 L 715.5 140 L 721.5 140 L 726.5 140 L 732.5 140 L 737.5 140 L 741.5 140 L 746.5 140 L 750.5 140 L 754.5 140 L 758.5 140 L 762.5 140 L 767.5 139 L 770.5 139 L 773.5 139 L 776.5 138 L 779.5 138 L 781.5 138 L 783.5 137 L 785.5 137 L 787.5 137 L 789.5 136 L 792.5 136 L 793.5 135 L 794.5 135 L 796.5 135 L 797.5 135 L 797.5 134 L 798.5 133 L 799.5 133 L 799.5 132 L 799.5 131 L 798.5 130 L 798.5 129 L 797.5 128 L 796.5 127 L 795.5 126 L 794.5 125 L 793.5 125 L 792.5 124 L 791.5 124 L 789.5 124 L 788.5 123 L 787.5 122 L 785.5 122 L 784.5 121 L 783.5 121 L 781.5 120 L 779.5 120 L 778.5 120 L 776.5 119 L 774.5 119 L 771.5 119 L 769.5 119 L 767.5 119 L 765.5 119 L 763.5 119 L 760.5 119 L 757.5 119 L 754.5 119 L 751.5 119 L 748.5 119 L 745.5 119 L 741.5 119 L 737.5 119 L 733.5 119 L 729.5 119 L 725.5 119 L 720.5 119 L 716.5 119 L 712.5 119 L 708.5 119 L 704.5 119 L 698.5 120 L 693.5 120 L 687.5 121 L 683.5 122 L 677.5 122 L 672.5 122 L 666.5 123 L 661.5 124 L 656.5 124 L 651.5 125 L 645.5 126 L 640.5 126 L 636.5 127 L 631.5 127 L 627.5 128 L 622.5 129 L 618.5 130 L 614.5 131 L 609.5 132 L 605.5 133 L 601.5 134 L 596.5 134 L 593.5 135 L 590.5 136 L 587.5 137 L 584.5 138 L 581.5 138 L 579.5 139 L 577.5 140 L 573.5 141 L 571.5 142 L 569.5 144 L 567.5 144 L 565.5 146 L 562.5 147 L 561.5 147 L 560.5 149 L 558.5 149 L 557.5 151 L 555.5 151 L 554.5 152 L 553.5 153 L 551.5 153 L 550.5 155 L 548.5 156 L 548.5 157 L 547.5 157 L 547.5 159 L 545.5 160 L 545.5 162 L 544.5 163 L 543.5 164 L 543.5 166 L 542.5 167 L 540.5 168 L 540.5 170 L 538.5 171 L 538.5 173 L 537.5 174 L 536.5 175 L 535.5 177 L 533.5 178 L 533.5 180 L 531.5 181 L 530.5 182 L 528.5 184 L 527.5 185 L 526.5 187 L 524.5 188 L 523.5 189 L 521.5 190 L 520.5 192 L 519.5 192 L 517.5 193 L 515.5 194 L 513.5 196 L 511.5 197 L 509.5 198 L 507.5 200 L 505.5 201 L 502.5 202 L 500.5 203 L 498.5 205 L 496.5 206 L 494.5 206 L 491.5 208 L 488.5 209 L 485.5 210 L 482.5 212 L 479.5 213 L 476.5 213 L 472.5 214 L 468.5 216 L 464.5 217 L 461.5 218 L 456.5 218 L 452.5 219 L 448.5 219 L 443.5 220 L 439.5 220 L 435.5 220 L 431.5 220 L 427.5 220 L 423.5 220 L 419.5 220 L 415.5 220 L 410.5 220 L 406.5 219 L 403.5 219 L 400.5 219 L 396.5 218 L 393.5 217 L 390.5 217 L 386.5 216 L 384.5 216 L 382.5 216 L 380.5 215 L 378.5 214 L 376.5 214 L 374.5 213 L 373.5 213 L 372.5 212 L 370.5 211 L 369.5 211 L 368.5 210 L 367.5 209 L 366.5 208 L 365.5 208 L 365.5 207 L 365.5 206 L 365.5 205 L 365.5 204 L 365.5 203 L 366.5 203 L 366.5 202 L 367.5 202 L 367.5 201 L 368.5 200 L 369.5 199 L 370.5 198 L 371.5 198 L 373.5 197 L 374.5 196 L 375.5 195 L 377.5 195 L 378.5 194 L 380.5 193 L 381.5 193 L 383.5 193 L 385.5 193 L 387.5 193 L 389.5 193 L 392.5 193 L 394.5 193 L 396.5 193 L 398.5 193 L 401.5 193 L 404.5 193 L 407.5 193 L 410.5 193 L 413.5 193 L 416.5 193 L 419.5 193 L 422.5 193 L 425.5 193 L 428.5 194 L 432.5 195 L 437.5 196 L 441.5 197 L 445.5 197 L 450.5 199 L 454.5 200 L 460.5 201 L 466.5 203 L 471.5 205 L 477.5 207 L 483.5 209 L 489.5 210 L 494.5 212 L 500.5 214 L 506.5 215 L 512.5 217 L 517.5 219 L 523.5 221 L 529.5 223 L 535.5 225 L 540.5 227 L 546.5 229 L 551.5 231 L 557.5 233 L 562.5 235 L 568.5 237 L 573.5 238 L 578.5 240 L 584.5 242 L 589.5 244 L 594.5 246 L 599.5 248 L 603.5 250 L 608.5 251 L 612.5 252 L 617.5 254 L 621.5 256 L 626.5 258 L 630.5 258 L 635.5 260 L 639.5 261 L 644.5 263 L 647.5 264 L 650.5 265 L 653.5 265 L 656.5 266 L 659.5 267 L 662.5 268 L 665.5 268 L 667.5 269 L 670.5 269 L 672.5 269 L 674.5 270 L 676.5 270 L 678.5 270 L 680.5 270 L 682.5 270 L 684.5 270 L 685.5 271 L 686.5 271 L 688.5 271 L 689.5 271 L 690.5 271 L 691.5 271 L 693.5 271 L 694.5 271 L 694.5 270 L 695.5 270 L 696.5 270 L 697.5 270 L 697.5 269 L 698.5 269 L 699.5 269 L 700.5 269 L 700.5 268 L 701.5 268"></path><script>
            <![CDATA[
                this.play = true
                function animate(element) {
    const motionPath = document.getElementById('motionPath');
    const totalLength = motionPath.getTotalLength();
    let distanceCovered = 0;
    const speed = 5;
    element.setAttribute("x", 0);
    element.setAttribute("y", 0);
    const moveAlongPath = () => {
      if (this.play) {
        const point = motionPath.getPointAtLength(distanceCovered);
        element.setAttribute("transform", `translate(${point.x} ${point.y})`);
        distanceCovered += speed;
        if (distanceCovered <= totalLength) {
          requestAnimationFrame(moveAlongPath);
        } else {
          // console.log(this.animations)
          distanceCovered = 0;
          requestAnimationFrame(moveAlongPath);
          this.saveAnimatedSvg();
        }
      } else {
        requestAnimationFrame(moveAlongPath);
      }
    };
    moveAlongPath();
  }
                const animatedElement = document.getElementById('animatedElementId');
                animate(animatedElement);
            ]]>
        </script></svg>