<svg xmlns="http://www.w3.org/2000/svg" width="1000" height="1000" viewbox="0 0 1000 1000"><rect stroke="black" stroke-width="2" fill="none" x="124" y="63" width="72" height="47" id="animatedElementId"></rect><path stroke="red" stroke-width="2" fill="none" id="motionPath" d="M 500 109 L 499 109 L 504 109 L 514 106 L 541 104 L 581 101 L 630 96 L 684 92 L 716 87 L 726 85 L 725 83 L 715 78 L 687 74 L 641 74 L 575 76 L 517 89 L 469 106 L 453 117 L 452 124 L 466 135 L 490 148 L 526 162 L 563 173 L 581 177 L 585 177 L 579 177 L 559 177 L 526 177 L 491 183 L 457 194 L 443 200 L 442 203 L 452 209 L 471 216 L 498 229 L 515 239 L 523 245 L 523 247 L 519 248 L 509 250 L 493 250"></path><script>
            <![CDATA[
                
                    function animate(element) {
                    const motionPath = document.getElementById('motionPath');
                    const totalLength = motionPath.getTotalLength();
                    let distanceCovered = 0;
                    const speed = 5;
    
                    const moveAlongPath = () => {
                        const point = motionPath.getPointAtLength(distanceCovered);
                        element.setAttribute("transform", `translate(${point.x} ${point.y})`);
    
                        distanceCovered += speed;
    
                        if (distanceCovered <= totalLength) {
                            requestAnimationFrame(moveAlongPath);
                        } else {
                            // Анимация завершена
                        }
                    };
    
                    moveAlongPath();
                }
                const animatedElement = document.getElementById('animatedElementId');
                animate(animatedElement);
            ]]>
        </script></svg>