<svg xmlns="http://www.w3.org/2000/svg" width="1000" height="1000" viewbox="0 0 1000 1000"><rect stroke="black" stroke-width="2" fill="none" x="170.5" y="43" width="62" height="63" id="animatedElementId"></rect><path stroke="red" stroke-width="2" fill="none" id="motionPath" d="M 455.5 223 L 452.5 223 L 450.5 223 L 448.5 223 L 446.5 223 L 445.5 223 L 444.5 223 L 443.5 223 L 443.5 222 L 443.5 221 L 444.5 221 L 444.5 220 L 445.5 220 L 446.5 219 L 447.5 218 L 449.5 218 L 450.5 216 L 452.5 215 L 455.5 213 L 457.5 212 L 459.5 210 L 462.5 208 L 466.5 205 L 469.5 203 L 474.5 200 L 477.5 197 L 482.5 194 L 487.5 192 L 491.5 189 L 496.5 186 L 502.5 183 L 507.5 180 L 513.5 177 L 519.5 174 L 524.5 171 L 530.5 169 L 536.5 166 L 542.5 164 L 548.5 162 L 554.5 159 L 560.5 156 L 565.5 154 L 571.5 151 L 577.5 149 L 582.5 147 L 586.5 145 L 591.5 143 L 596.5 142 L 602.5 140 L 607.5 138 L 612.5 136 L 618.5 134 L 624.5 132 L 630.5 130 L 635.5 128 L 640.5 126 L 644.5 125 L 650.5 123 L 655.5 121 L 659.5 119 L 664.5 117 L 668.5 115 L 673.5 115 L 677.5 113 L 680.5 112 L 684.5 110 L 687.5 110 L 690.5 108 L 693.5 107 L 696.5 106 L 699.5 105 L 701.5 104 L 703.5 103 L 705.5 103 L 706.5 102 L 708.5 101 L 709.5 101 L 711.5 100 L 712.5 99 L 713.5 99 L 714.5 99 L 715.5 99 L 715.5 98 L 716.5 98 L 716.5 97 L 716.5 96 L 715.5 96 L 714.5 95 L 713.5 95 L 712.5 94 L 711.5 93 L 710.5 93 L 708.5 92 L 707.5 91 L 706.5 91 L 704.5 90 L 702.5 89 L 700.5 88 L 697.5 86 L 694.5 85 L 690.5 84 L 686.5 82 L 681.5 80 L 677.5 78 L 671.5 76 L 665.5 74 L 659.5 73 L 654.5 71 L 648.5 70 L 642.5 68 L 637.5 67 L 631.5 66 L 624.5 64 L 617.5 63 L 610.5 62 L 605.5 61 L 599.5 60 L 593.5 59 L 588.5 58 L 582.5 58 L 577.5 58 L 572.5 58 L 566.5 58 L 562.5 58 L 558.5 58 L 554.5 58 L 550.5 58 L 546.5 58 L 541.5 58 L 538.5 58 L 535.5 59 L 533.5 59 L 531.5 59 L 529.5 59 L 527.5 60 L 525.5 61 L 524.5 61 L 523.5 61 L 522.5 61 L 522.5 62 L 523.5 62 L 524.5 63 L 525.5 63 L 526.5 63 L 527.5 64 L 528.5 64 L 529.5 65 L 530.5 65 L 532.5 66 L 533.5 67 L 535.5 67 L 538.5 68 L 540.5 69 L 542.5 70 L 544.5 70 L 546.5 71 L 549.5 72 L 551.5 72 L 553.5 73 L 556.5 74 L 559.5 76 L 563.5 77 L 566.5 78 L 569.5 80 L 572.5 81 L 575.5 82 L 579.5 84 L 582.5 85 L 585.5 86 L 588.5 88 L 591.5 89 L 593.5 90 L 595.5 91 L 597.5 92 L 599.5 92 L 601.5 93 L 602.5 94 L 604.5 94 L 605.5 95 L 606.5 96 L 607.5 96 L 607.5 97 L 608.5 97 L 609.5 98 L 609.5 99 L 610.5 99 L 610.5 100 L 610.5 101 L 610.5 102 L 610.5 103 L 609.5 103 L 609.5 104 L 608.5 104 L 607.5 105 L 606.5 106 L 605.5 106 L 604.5 107 L 603.5 108 L 602.5 108 L 602.5 109 L 601.5 109 L 600.5 109 L 600.5 110 L 599.5 110 L 599.5 111 L 598.5 112"></path><script>
            <![CDATA[
                this.play = true
                this.currentSpeed = 20
                let distanceCovered = 0;
                let isAnimationSaved = false;
                let isUpdateTime = false
                
                function animate(element) {
    const motionPath = document.getElementById('motionPath');
    const totalLength = motionPath.getTotalLength();
    distanceCovered = 0;
    let speed = this.currentSpeed;
    element.setAttribute("x", 0);
    element.setAttribute("y", 0);
    const moveAlongPath = () => {
      if (this.play) {
        const point = motionPath.getPointAtLength(distanceCovered);
        if (element.hasAttribute("d")) {
          const initialX = element.getPointAtLength(0).x;
          const initialY = element.getPointAtLength(0).y;
          element.setAttribute("transform", `translate(${point.x - initialX} ${point.y - initialY})`);
        } else {
          element.setAttribute("transform", `translate(${point.x} ${point.y})`);
        }
        speed = this.currentSpeed;
        distanceCovered += speed;
        if (distanceCovered <= totalLength) {
          requestAnimationFrame(moveAlongPath);
        } else {
          distanceCovered = 0;
          const newStartTime = Date.now();
          if (isUpdateTime) {
            _store_animationToolState__WEBPACK_IMPORTED_MODULE_1__["default"].setStartTime(newStartTime);
          }
          requestAnimationFrame(moveAlongPath);
          if (!isAnimationSaved) {
            isAnimationSaved = true;
            this.saveAnimatedSvg();
          }
        }
      } else {
        requestAnimationFrame(moveAlongPath);
      }
    };
    moveAlongPath();
  }
                const animatedElement = document.getElementById('animatedElementId');
                animate(animatedElement);
            ]]>
        </script></svg>