<svg xmlns="http://www.w3.org/2000/svg" width="1000" height="1000" viewbox="0 0 1000 1000"><rect stroke="black" stroke-width="2" fill="none" x="80.5" y="96" width="35" height="44" id="animatedElementId"></rect><path stroke="red" stroke-width="2" fill="none" id="motionPath" d="M 328.5 248 L 329.5 247 L 330.5 247 L 331.5 246 L 332.5 245 L 333.5 245 L 335.5 244 L 336.5 243 L 337.5 243 L 339.5 242 L 341.5 241 L 343.5 241 L 345.5 240 L 348.5 239 L 350.5 238 L 352.5 238 L 355.5 237 L 358.5 235 L 362.5 234 L 365.5 233 L 369.5 231 L 374.5 230 L 378.5 228 L 383.5 227 L 388.5 226 L 394.5 224 L 400.5 222 L 406.5 220 L 411.5 218 L 417.5 216 L 424.5 214 L 431.5 212 L 438.5 210 L 446.5 208 L 453.5 206 L 462.5 204 L 470.5 202 L 478.5 199 L 487.5 196 L 495.5 193 L 503.5 191 L 513.5 188 L 522.5 185 L 530.5 182 L 538.5 179 L 548.5 175 L 558.5 172 L 566.5 169 L 576.5 166 L 584.5 163 L 592.5 159 L 601.5 155 L 607.5 152 L 614.5 149 L 621.5 146 L 628.5 143 L 635.5 140 L 641.5 136 L 648.5 132 L 654.5 128 L 660.5 124 L 665.5 121 L 671.5 117 L 676.5 113 L 681.5 109 L 686.5 106 L 689.5 103 L 693.5 100 L 695.5 98 L 697.5 96 L 699.5 93 L 700.5 91 L 702.5 89 L 703.5 88 L 703.5 86 L 704.5 85 L 705.5 83 L 705.5 82 L 705.5 81 L 704.5 80 L 704.5 79 L 703.5 79 L 703.5 78 L 702.5 78 L 701.5 77 L 700.5 76 L 698.5 76 L 697.5 75 L 695.5 74 L 694.5 73 L 692.5 73 L 690.5 73 L 688.5 73 L 686.5 73 L 683.5 73 L 681.5 73 L 679.5 73 L 676.5 73 L 673.5 73 L 671.5 73 L 668.5 73 L 665.5 73 L 663.5 73 L 660.5 74 L 657.5 75 L 654.5 76 L 651.5 76 L 647.5 77 L 644.5 78 L 641.5 79 L 638.5 81 L 635.5 82 L 631.5 84 L 629.5 85 L 627.5 87 L 624.5 88 L 621.5 90 L 619.5 91 L 616.5 93 L 614.5 94 L 612.5 96 L 609.5 97 L 607.5 99 L 605.5 100 L 603.5 102 L 602.5 103 L 601.5 104 L 599.5 106 L 598.5 107 L 598.5 108 L 597.5 109 L 597.5 110 L 596.5 111 L 595.5 112 L 595.5 113 L 595.5 115 L 595.5 116 L 596.5 117 L 597.5 118 L 597.5 119 L 598.5 120 L 599.5 121 L 600.5 122 L 602.5 123 L 603.5 123 L 604.5 124 L 606.5 125 L 608.5 126 L 610.5 127 L 612.5 128 L 615.5 128 L 617.5 129 L 619.5 130 L 621.5 131 L 623.5 131 L 627.5 132 L 630.5 133 L 633.5 134 L 636.5 134 L 639.5 135 L 642.5 135 L 645.5 135 L 648.5 136 L 652.5 136 L 655.5 137 L 659.5 137 L 663.5 137 L 668.5 137 L 671.5 137 L 675.5 137 L 679.5 138 L 682.5 138 L 685.5 139 L 688.5 140 L 691.5 141 L 694.5 141 L 697.5 142 L 701.5 143 L 704.5 144 L 706.5 144 L 708.5 144 L 710.5 145 L 712.5 146 L 715.5 147 L 716.5 147 L 717.5 147 L 719.5 148 L 720.5 149 L 721.5 149 L 722.5 149 L 722.5 150 L 723.5 150 L 724.5 150 L 724.5 151 L 724.5 152 L 724.5 153 L 723.5 153"></path><script>
            <![CDATA[
                this.play = true
                function animate(element) {
    const motionPath = document.getElementById('motionPath');
    const totalLength = motionPath.getTotalLength();
    distanceCovered = 0;
    const speed = 5;
    element.setAttribute("x", 0);
    element.setAttribute("y", 0);
    const moveAlongPath = () => {
      if (this.play) {
        const point = motionPath.getPointAtLength(distanceCovered);
        element.setAttribute("transform", `translate(${point.x} ${point.y})`);
        distanceCovered += speed;
        if (distanceCovered <= totalLength) {
          requestAnimationFrame(moveAlongPath);
        } else {
          // console.log(this.animations)
          distanceCovered = 0;
          requestAnimationFrame(moveAlongPath);
          this.saveAnimatedSvg();
        }
      } else {
        requestAnimationFrame(moveAlongPath);
      }
    };
    moveAlongPath();
  }
                const animatedElement = document.getElementById('animatedElementId');
                animate(animatedElement);
            ]]>
        </script></svg>