<svg xmlns="http://www.w3.org/2000/svg" width="1000" height="1000" viewbox="0 0 1000 1000"><rect stroke="black" stroke-width="2" fill="none" x="31.5" y="59" width="76" height="66" id="animatedElementId"></rect><path stroke="red" stroke-width="2" fill="none" id="motionPath" d="M 257.5 175 L 258.5 174 L 259.5 173 L 260.5 173 L 261.5 172 L 262.5 172 L 263.5 171 L 264.5 171 L 266.5 170 L 267.5 169 L 268.5 169 L 270.5 168 L 271.5 168 L 272.5 167 L 275.5 166 L 276.5 166 L 278.5 166 L 280.5 165 L 282.5 164 L 285.5 164 L 287.5 164 L 290.5 163 L 293.5 163 L 296.5 162 L 299.5 161 L 302.5 161 L 305.5 161 L 308.5 161 L 312.5 160 L 316.5 160 L 320.5 160 L 325.5 159 L 328.5 159 L 332.5 159 L 336.5 159 L 340.5 158 L 346.5 157 L 351.5 156 L 356.5 155 L 360.5 155 L 364.5 154 L 368.5 154 L 373.5 154 L 377.5 154 L 381.5 153 L 385.5 152 L 390.5 152 L 393.5 151 L 396.5 151 L 400.5 150 L 404.5 149 L 407.5 149 L 410.5 149 L 413.5 149 L 416.5 149 L 420.5 148 L 423.5 148 L 426.5 147 L 430.5 147 L 433.5 147 L 436.5 147 L 440.5 146 L 442.5 146 L 445.5 146 L 449.5 145 L 452.5 145 L 455.5 145 L 458.5 145 L 461.5 145 L 464.5 145 L 467.5 145 L 470.5 144 L 473.5 144 L 476.5 143 L 478.5 143 L 481.5 143 L 484.5 142 L 486.5 142 L 489.5 142 L 492.5 142 L 495.5 142 L 497.5 141 L 500.5 141 L 503.5 140 L 506.5 140 L 509.5 139 L 511.5 139 L 515.5 139 L 517.5 138 L 520.5 138 L 523.5 138 L 525.5 138 L 528.5 137 L 531.5 137 L 534.5 136 L 537.5 136 L 539.5 136 L 542.5 136 L 544.5 135 L 547.5 134 L 550.5 133 L 553.5 133 L 555.5 133 L 557.5 132 L 559.5 131 L 562.5 131 L 564.5 130 L 567.5 130 L 570.5 129 L 572.5 128 L 574.5 127 L 576.5 127 L 578.5 126 L 581.5 125 L 583.5 125 L 585.5 124 L 587.5 123 L 590.5 122 L 592.5 121 L 593.5 120 L 594.5 119 L 596.5 118 L 597.5 117 L 599.5 117 L 600.5 116 L 601.5 115 L 603.5 113 L 604.5 112 L 605.5 111 L 606.5 110 L 606.5 109 L 607.5 108 L 607.5 107 L 608.5 106 L 609.5 105 L 609.5 103 L 610.5 102 L 610.5 101 L 611.5 101 L 611.5 100 L 611.5 98 L 611.5 97 L 611.5 96 L 611.5 95 L 611.5 94 L 611.5 93 L 611.5 92 L 611.5 91 L 611.5 90 L 610.5 89 L 610.5 88 L 610.5 87 L 610.5 86 L 609.5 86 L 609.5 85 L 609.5 84 L 608.5 84 L 607.5 84 L 606.5 84 L 605.5 84 L 604.5 84 L 603.5 84 L 602.5 84 L 601.5 84 L 600.5 84 L 600.5 85 L 598.5 85 L 597.5 85 L 595.5 86 L 594.5 86 L 593.5 87 L 591.5 87"></path><script>
            <![CDATA[
                animate(element) {
    const motionPath = document.getElementById('motionPath');
    const totalLength = motionPath.getTotalLength();
    let distanceCovered = 0;
    const speed = 5;
    const moveAlongPath = () => {
      if (this.play) {
        const point = motionPath.getPointAtLength(distanceCovered);
        element.setAttribute("transform", `translate(${point.x} ${point.y})`);
        distanceCovered += speed;
        if (distanceCovered <= totalLength) {
          requestAnimationFrame(moveAlongPath);
        } else {
          // console.log(this.animations)
          distanceCovered = 0;
          requestAnimationFrame(moveAlongPath);
        }
      } else {
        requestAnimationFrame(moveAlongPath);
      }
    };
    moveAlongPath();
    this.saveAnimatedSvg();
  }

                const animatedElement = document.getElementById('animatedElementId');
                animate(animatedElement);
            ]]>
        </script></svg>