<svg xmlns="http://www.w3.org/2000/svg" width="1000" height="1000" viewbox="0 0 1000 1000"><rect stroke="black" stroke-width="2" fill="none" x="95.5" y="58" width="59" height="59" id="animatedElementId"></rect><path stroke="red" stroke-width="2" fill="none" id="motionPath" d="M 496.5 185 L 510.5 176 L 526.5 167 L 547.5 155 L 559.5 149 L 570.5 144 L 581.5 138 L 587.5 133 L 592.5 129 L 596.5 125 L 599.5 121 L 601.5 119 L 603.5 117 L 603.5 114 L 604.5 113 L 604.5 112 L 605.5 111 L 605.5 109 L 605.5 108 L 605.5 107 L 604.5 105 L 603.5 104 L 602.5 102 L 601.5 99 L 598.5 98 L 595.5 96 L 592.5 95 L 586.5 94 L 578.5 94 L 573.5 94 L 566.5 96 L 560.5 99 L 551.5 104 L 545.5 107 L 539.5 112 L 533.5 115 L 530.5 119 L 526.5 122 L 521.5 125 L 518.5 130 L 516.5 133 L 511.5 142 L 507.5 152 L 502.5 159 L 497.5 170 L 492.5 180 L 487.5 188 L 479.5 200 L 470.5 211 L 462.5 216 L 457.5 221 L 450.5 224 L 447.5 226 L 445.5 226 L 443.5 226 L 440.5 225 L 437.5 223 L 434.5 220 L 429.5 213 L 423.5 204 L 419.5 195 L 415.5 187 L 412.5 182 L 410.5 180 L 410.5 179"></path><script>
            <![CDATA[
                this.play = true
                function animate(element) {
    const motionPath = document.getElementById('motionPath');
    const totalLength = motionPath.getTotalLength();
    distanceCovered = 0;
    const speed = 5;
    element.setAttribute("x", 0);
    element.setAttribute("y", 0);
    const moveAlongPath = () => {
      if (this.play) {
        const point = motionPath.getPointAtLength(distanceCovered);
        element.setAttribute("transform", `translate(${point.x} ${point.y})`);
        distanceCovered += speed;
        if (distanceCovered <= totalLength) {
          requestAnimationFrame(moveAlongPath);
        } else {
          // console.log(this.animations)
          distanceCovered = 0;
          requestAnimationFrame(moveAlongPath);
          if (!isAnimationSaved) {
            isAnimationSaved = true;
            this.saveAnimatedSvg();
          }
        }
      } else {
        requestAnimationFrame(moveAlongPath);
      }
    };
    moveAlongPath();
  }
                const animatedElement = document.getElementById('animatedElementId');
                animate(animatedElement);
            ]]>
        </script></svg>