<svg width="113" height="94" viewBox="0 0 113 94" fill="none" xmlns="http://www.w3.org/2000/svg">
<path d="M67.2797 93.7449H78.493V76.345H67.2797V93.7449ZM80.7973 11.6405L112.133 27.0452L89.7063 44.8106L80.7973 11.6405Z" fill="#FBC02D"/>
<path d="M27.579 61.6073L-7.53403e-05 87.945H22.4265L36.8692 73.0042C43.6308 78.7114 52.265 82.145 61.673 82.145C83.3482 82.145 100.919 63.9679 100.919 41.5452C100.919 23.1535 89.095 5.69557 72.8862 0V18.3453L27.579 61.6073Z" fill="#916DF9"/>
<path opacity="0.3" d="M29.9169 59.3801C34.2509 62.2163 39.3473 63.9215 44.853 63.9215C60.3386 63.9215 72.8862 50.9411 72.8862 34.9216V18.3453L29.9169 59.3801Z" fill="black"/>
<path opacity="0.5" d="M78.4929 32.8452C78.4929 40.855 84.7667 47.3452 92.5095 47.3452C95.5819 47.3452 98.4021 46.2954 100.712 44.5612C100.785 43.5578 100.919 42.5718 100.919 41.5452C100.919 33.344 98.531 25.2009 94.4662 18.3569C93.827 18.2699 93.1711 18.3453 92.5095 18.3453C84.7667 18.3453 78.4929 24.8355 78.4929 32.8452Z" fill="black"/>
</svg>
