<svg width="24" height="19" viewBox="0 0 24 19" fill="none" xmlns="http://www.w3.org/2000/svg">
<path d="M9.39881 2.79033L9.30388 2.80054C7.2416 2.86986 5.57897 2.72269 4.37915 2.61545L4.31898 2.61007C3.75965 2.56003 3.2462 2.51409 2.86312 2.51697C2.67019 2.51842 2.42452 2.53118 2.19159 2.59965C1.96897 2.66509 1.52021 2.85708 1.34738 3.38239C1.30844 3.50078 1.29468 3.61561 1.2898 3.65636L1.2896 3.65801C1.28207 3.72087 1.27638 3.78958 1.2718 3.85798C1.26256 3.99611 1.25539 4.17094 1.24978 4.37126C1.23851 4.77402 1.23268 5.31317 1.23215 5.93776C1.23109 7.18856 1.25128 8.80424 1.29394 10.4025C1.33652 11.998 1.40186 13.59 1.49219 14.7883C1.53699 15.3828 1.58975 15.906 1.65348 16.291C1.68403 16.4757 1.72447 16.6758 1.78389 16.8477C1.81113 16.9266 1.8643 17.0661 1.96273 17.2041C2.0379 17.3096 2.331 17.6785 2.86811 17.6566C2.92269 17.6543 2.97699 17.6476 3.03047 17.6365C3.64872 17.5082 5.09679 17.4047 7.03328 17.3143C8.30205 17.255 9.73074 17.2029 11.1928 17.1497C11.9225 17.1231 12.6605 17.0962 13.3911 17.068C15.5736 16.9836 17.6901 16.8872 19.2626 16.7507C20.0429 16.683 20.7253 16.6025 21.2248 16.5009C21.4655 16.452 21.7234 16.3868 21.9413 16.2897C22.0467 16.2428 22.2067 16.1609 22.3535 16.022C22.5064 15.8773 22.725 15.5877 22.7078 15.1686C22.7001 14.979 22.6833 14.3942 22.6597 13.5737C22.6243 12.3407 22.5736 10.5756 22.5153 8.81972C22.4671 7.36628 22.4138 5.92546 22.3603 4.82193C22.3335 4.27133 22.3064 3.79706 22.2792 3.44459C22.2657 3.26976 22.2514 3.1138 22.2359 2.98912C22.2282 2.92777 22.2187 2.86118 22.2064 2.79779C22.2062 2.79662 22.2059 2.79522 22.2056 2.79361C22.1988 2.75758 22.1716 2.6149 22.0989 2.47102C21.9799 2.23533 21.8033 2.1086 21.7111 2.05214C21.6109 1.99077 21.5186 1.95685 21.4614 1.93845C21.3468 1.90158 21.2376 1.88484 21.1648 1.87579C21.0104 1.85658 20.8292 1.85011 20.6491 1.84884C20.2792 1.84623 19.7829 1.86545 19.2182 1.89783C18.0826 1.96296 16.5962 2.08587 15.1267 2.21982C13.6548 2.35399 12.1901 2.50016 11.0939 2.61271C10.5457 2.669 10.0893 2.71692 9.76978 2.75078L9.39881 2.79033Z" stroke="#363636" stroke-width="2" stroke-linecap="round" stroke-linejoin="round"/>
<path d="M2 14C2.52515 14 3.57174 13.2961 4.98606 12.7198C6.16483 12.2394 7.75556 11.869 8.05058 11.869C8.69957 11.869 11.2664 13.3126 12.0307 13.3126C12.7949 13.3126 15.8555 9.07698 16.97 8C18.403 8.36663 21.0214 11.4933 22 11.4933" stroke="#363636" stroke-width="2" stroke-linecap="round" stroke-linejoin="round"/>
<path d="M8.59333 8.17754C7.85316 9.45954 6.34074 9.81504 5.05874 9.07488C3.77674 8.33471 3.46087 7.29638 3.83906 6.09851C4.30637 4.61833 6.28733 3.98623 7.56934 4.72639C8.85134 5.46656 9.33349 6.89553 8.59333 8.17754Z" fill="#363636"/>
</svg>
