<?xml version="1.0" encoding="UTF-8"?>
<!DOCTYPE svg PUBLIC "-//W3C//DTD SVG 1.1//EN" "http://www.w3.org/Graphics/SVG/1.1/DTD/svg11.dtd">
<svg xmlns="http://www.w3.org/2000/svg" version="1.1" width="512px" height="512px" style="shape-rendering:geometricPrecision; text-rendering:geometricPrecision; image-rendering:optimizeQuality; fill-rule:evenodd; clip-rule:evenodd" xmlns:xlink="http://www.w3.org/1999/xlink">
<g><path style="opacity:0.983" fill="#000000" d="M 511.5,66.5 C 511.5,72.8333 511.5,79.1667 511.5,85.5C 509.941,90.6332 507.774,95.6332 505,100.5C 500.333,105.833 495.667,111.167 491,116.5C 418.167,192.667 345.333,268.833 272.5,345C 271.551,345.617 270.718,345.451 270,344.5C 257.212,309.377 233.046,286.211 197.5,275C 279.561,195.603 362.228,116.936 445.5,39C 467.278,28.3958 486.445,31.8958 503,49.5C 506.407,54.9799 509.24,60.6465 511.5,66.5 Z"/></g>
<g><path style="opacity:0.987" fill="#000000" d="M -0.5,418.5 C -0.5,417.5 -0.5,416.5 -0.5,415.5C 26.2062,409.567 49.3728,397.234 69,378.5C 79.3895,364.443 89.3895,350.11 99,335.5C 125.538,306.433 158.038,296.266 196.5,305C 229.26,319.317 245.927,344.484 246.5,380.5C 245.665,415.012 230.332,440.845 200.5,458C 146.208,485.271 91.8744,485.271 37.5,458C 20.8466,448.516 8.17989,435.349 -0.5,418.5 Z"/></g>
</svg>
