<?xml version="1.0" encoding="UTF-8"?>
<!DOCTYPE svg PUBLIC "-//W3C//DTD SVG 1.1//EN" "http://www.w3.org/Graphics/SVG/1.1/DTD/svg11.dtd">
<svg xmlns="http://www.w3.org/2000/svg" version="1.1" width="512px" height="512px" style="shape-rendering:geometricPrecision; text-rendering:geometricPrecision; image-rendering:optimizeQuality; fill-rule:evenodd; clip-rule:evenodd" xmlns:xlink="http://www.w3.org/1999/xlink">
<g><path style="opacity:0.982" fill="#000000" d="M 464.5,-0.5 C 470.5,-0.5 476.5,-0.5 482.5,-0.5C 497.167,4.16667 506.833,13.8333 511.5,28.5C 511.5,34.1667 511.5,39.8333 511.5,45.5C 509.773,51.6215 506.939,57.2881 503,62.5C 411.5,154 320,245.5 228.5,337C 227.833,337.667 227.167,337.667 226.5,337C 209,319.5 191.5,302 174,284.5C 173.333,283.833 173.333,283.167 174,282.5C 265.5,191 357,99.5 448.5,8C 453.483,4.344 458.816,1.51066 464.5,-0.5 Z"/></g>
<g><path style="opacity:0.965" fill="#000000" d="M 151.5,304.5 C 170.428,321.761 188.762,339.761 206.5,358.5C 193.181,372.319 179.681,385.986 166,399.5C 147.833,381.333 129.667,363.167 111.5,345C 125.035,331.632 138.369,318.132 151.5,304.5 Z"/></g>
<g><path style="opacity:0.983" fill="#000000" d="M 64.5,511.5 C 57.8333,511.5 51.1667,511.5 44.5,511.5C 20.5,505.5 5.5,490.5 -0.5,466.5C -0.5,459.833 -0.5,453.167 -0.5,446.5C 2.23004,434.215 8.23004,423.715 17.5,415C 40.0096,399.245 62.3429,383.245 84.5,367C 86.212,365.249 88.212,364.582 90.5,365C 109.541,383.707 128.208,402.707 146.5,422C 130.07,446.1 113.237,469.933 96,493.5C 87.2849,502.77 76.7849,508.77 64.5,511.5 Z"/></g>
</svg>
