<svg width="21" height="24" viewBox="0 0 21 24" fill="none" xmlns="http://www.w3.org/2000/svg">
<path d="M16.9059 11.3061C16.9207 11.8781 16.7098 12.4549 16.2733 12.8914L10.6822 18.4825C9.83779 19.3269 8.46873 19.3269 7.62431 18.4825L2.03321 12.8914C1.59668 12.4549 1.38582 11.8781 1.40063 11.3061M16.9059 11.3061C16.8933 10.8197 16.7175 10.3366 16.3784 9.94624C16.3392 9.8601 16.2842 9.77941 16.2134 9.70856L9.25163 2.74681M16.9059 11.3061H1.40063M1.40063 11.3061C1.41447 10.7717 1.62533 10.2414 2.03321 9.83353C2.17696 9.68978 9.25163 2.74681 9.25163 2.74681M9.25163 2.74681L8.10492 1.6001M2.49464 22.4001H13.9893M18.6786 15.4599C18.6105 15.3525 18.4939 15.2842 18.3676 15.2842C18.2412 15.2842 18.1246 15.3526 18.0566 15.4599C17.8136 15.8604 17.0265 17.2277 17.0265 17.8234C17.0265 18.5657 17.629 19.1713 18.3676 19.1713C19.1061 19.1713 19.7086 18.5657 19.7086 17.8234C19.7086 17.2179 18.9215 15.8603 18.6786 15.4599Z" stroke="#404040" stroke-width="2" stroke-linecap="round" stroke-linejoin="round"/>
</svg>
