<svg width="22" height="22" viewBox="0 0 22 22" fill="none" xmlns="http://www.w3.org/2000/svg">
<path d="M15.4582 1.75421C15.4828 1.72859 15.5067 1.70351 15.5301 1.67899C17.7563 -0.660343 22.741 3.60526 20.3797 6.00339M15.4582 1.75421C13.1405 4.17331 5.46592 11.4633 4.08138 13.8793M15.4582 1.75421C14.2515 3.05763 14.5576 4.81751 15.7748 5.99472C17.3203 7.4894 18.9926 7.40075 20.3651 6.01822M4.08138 13.8793C3.97761 14.0603 3.89796 14.2467 3.84047 14.436M4.08138 13.8793L3.84047 14.436M3.84047 14.436C3.19859 16.5488 5.31721 19.0178 7.44932 18.413M3.84047 14.436L1 21M7.44932 18.413C7.70144 18.3415 7.95374 18.227 8.20169 18.0639M7.44932 18.413L4.5806 19.7442M7.44932 18.413L8.20169 18.0639M8.20169 18.0639C10.7344 16.3975 18.0184 8.40151 20.3797 6.00339M20.3797 6.00339C20.3797 6.00339 20.3748 6.00811 20.3651 6.01822M20.3797 6.00339C20.3749 6.00835 20.37 6.01329 20.3651 6.01822M1 21C1.96385 20.6945 3.30062 20.2137 4.5806 19.7442M1 21L4.5806 19.7442M20.3651 6.01822C20.3069 6.07874 20.0783 6.33226 19.7196 6.92263C19.529 7.2364 9.01733 18.2221 8.47561 18.3421C8.15566 18.4129 6.42723 19.0669 4.5806 19.7442" stroke="#363636" stroke-width="2" stroke-linecap="round" stroke-linejoin="round"/>
</svg>
