<svg width="47" height="47" viewBox="0 0 47 47" fill="none" xmlns="http://www.w3.org/2000/svg">
<rect width="47" height="47" fill="#1E1E1E"/>
<g clip-path="url(#clip0_0_1)">
<rect width="1600" height="1098" transform="translate(-47 -11)" fill="white"/>
<rect width="46.7999" height="46.8" rx="11.7" fill="#4628A6"/>
<path d="M39.3618 21.5306C38.051 17.5912 37.5324 18.7964 38.2526 20.955C38.6559 22.1782 38.7136 22.484 38.5264 22.394C35.4295 20.8471 29.1637 23.3114 25.3611 27.6105L23.5461 29.6611C23.4597 27.8444 23.4165 26.8011 23.3445 26.2255C23.2869 25.7218 22.6387 25.5779 22.5667 26.1355C22.4803 26.8011 22.4947 27.9883 22.4947 29.877L22.0481 29.2474C19.8299 26.0995 13.3481 25.2181 7.22637 27.2508C6.20368 27.5926 6.20365 27.9343 7.19753 23.4553C8.53711 17.3574 8.92599 14.3894 9.18526 13.2022C9.3005 12.6625 14.0107 12.5546 15.7824 13.0403C17.4388 13.49 21.1118 15.5586 21.6448 16.3141C21.8176 16.5659 21.9617 17.6092 22.1922 20.2535C22.5379 24.2108 22.5811 23.941 22.8548 24.0849C23.3445 24.3187 23.0996 20.8471 22.9124 16.476L24.7993 14.7851C29.2646 10.7918 33.1536 11.1696 33.845 11.0077L34.7669 12.7525C36.8123 16.6019 37.1147 18.041 37.3884 17.1775C37.4892 16.8538 34.9109 10.3241 34.5076 9.87442C33.7441 9.02898 27.3776 8.74118 23.0276 14.0836C21.8897 15.4867 22.0193 15.4327 21.4144 14.8571C17.5109 11.1336 8.76757 9.7665 8.27784 12.8065C7.97535 14.6592 5.90114 22.0882 5.15213 26.981C4.96487 28.2401 4.9505 28.5639 5.10894 28.9596C5.2962 29.4273 5.39705 29.4633 6.00202 29.3194C6.2613 29.2654 6.30448 29.3913 6.40531 30.6865C6.52054 32.0536 6.80859 32.881 7.09667 32.6651C7.29833 32.5212 7.24077 32.845 7.01031 33.2228C6.46295 34.1222 7.06787 35.9389 7.8889 35.867C8.249 35.831 8.34984 35.921 8.47948 36.3707C8.69554 37.1082 8.96923 37.1801 9.5742 36.6585C10.208 36.1188 11.3459 35.2374 13.2472 34.6798C15.1486 34.1222 21.1262 34.6798 21.7168 35.0216C22.0769 35.2374 22.2642 35.2734 22.3362 35.1295C22.3938 35.0216 22.8835 34.8777 23.4453 34.8237C25.3322 34.6258 28.3427 34.1941 29.6967 33.9063C31.7133 33.4746 35.5015 33.6185 36.7547 34.1761C38.1519 34.7877 38.584 34.1581 37.6478 32.881C37.3165 32.4313 37.302 32.3773 37.5613 32.4673C39.5922 33.1328 39.9668 32.2514 38.7712 29.5892C38.2383 28.402 38.2382 28.456 39.0017 28.456C39.9091 28.456 39.866 28.0243 38.8001 26.0096C37.835 24.1928 37.835 24.1748 38.9873 24.6605C40.3701 25.2361 40.4277 24.7325 39.3618 21.5306ZM12.5702 32.0535C10.8273 32.2514 9.21409 33.3127 9.05564 33.3847C8.81077 33.4746 8.65231 33.2767 8.75314 32.809C8.81076 32.5212 8.88278 32.1795 8.89718 32.0356C9.01241 31.1002 13.881 30.1828 16.1856 30.6685C18.4471 31.1362 18.7784 31.334 20.7229 32.1975C17.41 31.9097 14.4283 31.8377 12.5702 32.0535ZM22.1489 31.0642C14.8893 28.4919 12.0373 28.402 8.16263 30.5785C7.64408 30.8843 7.19752 31.1002 7.18311 31.0642C7.1543 31.0102 7.06788 30.0029 6.96705 28.9776C10.4672 27.9163 13.2616 26.945 16.6898 27.5026C17.7125 27.6645 19.0953 28.3121 20.1468 29.1035C21.9473 30.4706 22.7827 31.2981 22.1489 31.0642ZM26.3693 28.7438C30.3593 24.4446 33.168 23.1315 36.3801 24.0849C36.7114 24.1748 38.0222 26.2255 37.8782 26.4053C37.8494 26.4413 37.5468 26.3874 37.2011 26.2794C34.5076 25.5419 32.9808 25.8297 29.3654 27.7904C28.4148 28.3121 27.4208 28.8337 27.1615 28.9596C26.0956 29.4813 23.5029 31.8377 26.3693 28.7438ZM37.0139 29.949C35.271 29.5352 33.2689 29.6072 31.4684 30.1288C30.1144 30.5246 25.9948 31.5859 25.8652 31.442C25.7932 31.37 27.8386 30.0749 28.8613 29.3913C30.9355 28.0063 33.4273 27.5386 36.3801 27.9703C37.0139 28.0602 37.1003 28.1502 37.6333 29.0855C38.3391 30.3267 38.3679 30.2728 37.0139 29.949Z" fill="white"/>
</g>
<defs>
<clipPath id="clip0_0_1">
<rect width="1600" height="1098" fill="white" transform="translate(-47 -11)"/>
</clipPath>
</defs>
</svg>
