<svg width="25" height="25" viewBox="0 0 25 25" fill="none" xmlns="http://www.w3.org/2000/svg">
<path d="M20.8734 17.5593C23.5313 15.1874 25 12.4999 25 12.4999C25 12.4999 20.3125 3.90615 12.5 3.90615C10.9994 3.91132 9.51571 4.224 8.14063 4.8249L9.34375 6.02959C10.3554 5.66108 11.4234 5.47128 12.5 5.46865C15.8125 5.46865 18.5609 7.29365 20.575 9.30771C21.5443 10.2822 22.4132 11.3517 23.1688 12.4999C23.0781 12.6358 22.9781 12.7858 22.8641 12.9499C22.3406 13.6999 21.5672 14.6999 20.575 15.6921C20.3172 15.9499 20.0484 16.2046 19.7672 16.4515L20.8734 17.5593Z" fill="#212529"/>
<path d="M17.6516 14.3374C18.0002 13.3622 18.0648 12.3079 17.8378 11.2974C17.6107 10.2869 17.1014 9.36166 16.369 8.62931C15.6367 7.89695 14.7114 7.38762 13.7009 7.16057C12.6904 6.93353 11.6362 6.9981 10.6609 7.34678L11.9469 8.63272C12.5474 8.54677 13.1596 8.60185 13.7351 8.79359C14.3106 8.98534 14.8335 9.30849 15.2625 9.73742C15.6914 10.1664 16.0146 10.6893 16.2063 11.2648C16.3981 11.8403 16.4531 12.4525 16.3672 13.053L17.6516 14.3374ZM13.0531 16.3671L14.3375 17.6515C13.3623 18.0001 12.308 18.0647 11.2975 17.8377C10.287 17.6106 9.36176 17.1013 8.62941 16.3689C7.89705 15.6366 7.38772 14.7113 7.16067 13.7008C6.93362 12.6903 6.9982 11.6361 7.34688 10.6608L8.63281 11.9468C8.54686 12.5473 8.60194 13.1595 8.79369 13.735C8.98544 14.3105 9.30858 14.8335 9.73752 15.2624C10.1665 15.6913 10.6894 16.0145 11.2649 16.2062C11.8404 16.398 12.4526 16.453 13.0531 16.3671Z" fill="#212529"/>
<path d="M5.23437 8.54678C4.95312 8.79678 4.68281 9.0499 4.425 9.30771C3.4557 10.2822 2.58675 11.3517 1.83125 12.4999L2.13594 12.9499C2.65938 13.6999 3.43281 14.6999 4.425 15.6921C6.43906 17.7062 9.18906 19.5312 12.5 19.5312C13.6187 19.5312 14.6719 19.3233 15.6563 18.9687L16.8594 20.1749C15.4843 20.7758 14.0006 21.0884 12.5 21.0937C4.6875 21.0937 0 12.4999 0 12.4999C0 12.4999 1.46719 9.81084 4.12656 7.44053L5.23281 8.54834L5.23437 8.54678ZM21.3219 22.428L2.57188 3.67803L3.67813 2.57178L22.4281 21.3218L21.3219 22.428Z" fill="#212529"/>
</svg>
