<svg width="32" height="32" viewBox="0 0 32 32" fill="none" xmlns="http://www.w3.org/2000/svg">
<path fill-rule="evenodd" clip-rule="evenodd" d="M21.0809 17.6261C21.2449 17.1134 21.3334 16.567 21.3334 16C21.3334 13.0544 18.9455 10.6666 16 10.6666C15.433 10.6666 14.8866 10.7551 14.3739 10.9191L15.1959 11.7411C15.4565 11.6922 15.7253 11.6666 16 11.6666C18.3933 11.6666 20.3334 13.6067 20.3334 16C20.3334 16.2747 20.3078 16.5435 20.2589 16.8041L21.0809 17.6261ZM12.5672 13.355C12.0026 14.0868 11.6667 15.0042 11.6667 16C11.6667 18.3932 13.6068 20.3333 16 20.3333C16.9958 20.3333 17.9132 19.9974 18.6449 19.4327L19.3568 20.1446C18.4402 20.8879 17.2721 21.3333 16 21.3333C13.0545 21.3333 10.6667 18.9455 10.6667 16C10.6667 14.7279 11.112 13.5598 11.8554 12.6432L12.5672 13.355Z" fill="#333333"/>
<path fill-rule="evenodd" clip-rule="evenodd" d="M24.295 20.8403C25.7453 19.5847 26.8841 18.2724 27.5905 17.384L27.6502 17.3092C27.9748 16.9029 28.2746 16.5277 28.2746 16C28.2746 15.4723 27.9748 15.0971 27.6502 14.6908L27.5905 14.616C26.7094 13.5078 25.1556 11.7403 23.1636 10.2458C21.1767 8.75513 18.7055 7.5 16 7.5C14.5471 7.5 13.1617 7.86197 11.8826 8.42801L12.6457 9.19105C13.7151 8.76068 14.8415 8.5 16 8.5C18.3992 8.5 20.6605 9.61797 22.5635 11.0457C24.4613 12.4695 25.9547 14.1655 26.8078 15.2383C27.2285 15.7674 27.2746 15.8617 27.2746 16C27.2746 16.1383 27.2285 16.2326 26.8078 16.7617C26.1145 17.6335 24.9984 18.9169 23.586 20.1313L24.295 20.8403ZM21.8591 22.6471L21.1314 21.9194C19.5649 22.8551 17.8222 23.5 16 23.5C13.6008 23.5 11.3395 22.382 9.43652 20.9543C7.53869 19.5305 6.04527 17.8345 5.19224 16.7617C4.77153 16.2326 4.7254 16.1383 4.7254 16C4.7254 15.8617 4.77153 15.7674 5.19224 15.2383C6.04527 14.1655 7.53869 12.4695 9.43652 11.0457C9.59283 10.9284 9.75155 10.8132 9.91258 10.7006L9.19512 9.98313C9.07388 10.0697 8.95428 10.1573 8.8364 10.2458C6.84438 11.7403 5.29061 13.5078 4.40951 14.616L4.34981 14.6908C4.02518 15.0971 3.7254 15.4723 3.7254 16C3.7254 16.5277 4.02518 16.9029 4.34981 17.3092L4.40951 17.384C5.29061 18.4922 6.84438 20.2597 8.8364 21.7542C10.8233 23.2449 13.2945 24.5 16 24.5C18.1411 24.5 20.1355 23.7139 21.8591 22.6471Z" fill="#333333"/>
<path d="M6.66669 2.66663L28 24" stroke="#333333"/>
</svg>
