<svg width="16" height="16" viewBox="0 0 16 16" fill="none" xmlns="http://www.w3.org/2000/svg">
<path d="M7.2929 -1.19239C7.48043 -1.37992 7.73479 -1.48528 8 -1.48528C8.26522 -1.48528 8.51957 -1.37992 8.70711 -1.19239L17.1924 7.29289C17.3799 7.48043 17.4853 7.73478 17.4853 8C17.4853 8.26522 17.3799 8.51957 17.1924 8.70711L8.70711 17.1924C8.51957 17.3799 8.26522 17.4853 8 17.4853C7.73479 17.4853 7.48043 17.3799 7.2929 17.1924L-1.19239 8.70711C-1.37992 8.51957 -1.48528 8.26522 -1.48528 8C-1.48528 7.73478 -1.37992 7.48043 -1.19239 7.29289L7.2929 -1.19239ZM-1.89949 6.58579C-2.27456 6.96086 -2.48528 7.46957 -2.48528 8C-2.48528 8.53043 -2.27456 9.03914 -1.89949 9.41421L6.58579 17.8995C6.96086 18.2746 7.46957 18.4853 8 18.4853C8.53044 18.4853 9.03914 18.2746 9.41422 17.8995L17.8995 9.41421C18.2746 9.03914 18.4853 8.53043 18.4853 8C18.4853 7.46957 18.2746 6.96086 17.8995 6.58579L9.41422 -1.89949C9.03914 -2.27457 8.53044 -2.48528 8 -2.48528C7.46957 -2.48528 6.96086 -2.27457 6.58579 -1.89949L-1.89949 6.58579Z" fill="white"/>
</svg>
