<svg width="24" height="24" viewBox="0 0 24 24" fill="none" xmlns="http://www.w3.org/2000/svg">
<path fill-rule="evenodd" clip-rule="evenodd" d="M20.781 3.21888C20.8508 3.28854 20.9063 3.37131 20.9441 3.46243C20.9819 3.55354 21.0013 3.65122 21.0013 3.74988C21.0013 3.84853 20.9819 3.94621 20.9441 4.03733C20.9063 4.12844 20.8508 4.21121 20.781 4.28088L4.281 20.7809C4.14017 20.9217 3.94916 21.0008 3.75 21.0008C3.55084 21.0008 3.35983 20.9217 3.219 20.7809C3.07817 20.64 2.99905 20.449 2.99905 20.2499C2.99905 20.0507 3.07817 19.8597 3.219 19.7189L19.719 3.21888C19.7887 3.14903 19.8714 3.09362 19.9626 3.05581C20.0537 3.018 20.1514 2.99854 20.25 2.99854C20.3487 2.99854 20.4463 3.018 20.5375 3.05581C20.6286 3.09362 20.7113 3.14903 20.781 3.21888V3.21888Z" fill="#212529"/>
</svg>
