<svg width="34" height="34" viewBox="0 0 34 34" fill="none" xmlns="http://www.w3.org/2000/svg">
<path d="M5.66663 21.25H21.25L18.4166 24.0833H7.08329L5.66663 21.25Z" fill="#12131A"/>
<path fill-rule="evenodd" clip-rule="evenodd" d="M16.3443 5.84036C14.2263 3.72222 10.7922 3.72215 8.67412 5.8402C6.5561 7.95818 6.55601 11.3921 8.67392 13.5102L9.33012 14.1665L5.4926 18.004C3.83287 19.6637 3.83287 22.3547 5.4926 24.0144L9.98564 28.5074C11.6454 30.1672 14.3363 30.1672 15.9961 28.5074L22.6727 21.8308H25.4941C28.0183 21.8308 29.2824 18.7789 27.4975 16.994L19.0034 8.49988L19.0035 8.49974L18.0019 7.498L16.3443 5.84036ZM10.6776 7.84369C11.6891 6.83213 13.3292 6.83216 14.3408 7.84377L14.9967 8.49968L11.3335 12.1629L10.6775 11.5068C9.66598 10.4952 9.66602 8.85522 10.6776 7.84369ZM7.49607 20.0074L17 10.5035L25.4941 18.9975H22.6726C21.9212 18.9975 21.2005 19.296 20.6692 19.8274L13.9926 26.504C13.4393 27.0572 12.5424 27.0572 11.9891 26.504L7.49607 22.0109C6.94282 21.4577 6.94283 20.5607 7.49607 20.0074Z" fill="#12131A"/>
<path d="M29.75 27.4833C29.75 28.7352 28.7986 29.75 27.625 29.75C26.4514 29.75 25.5 28.7352 25.5 27.4833C25.5 26.291 26.5452 24.9735 27.1696 24.2928C27.4185 24.0214 27.8315 24.0214 28.0804 24.2928C28.7048 24.9735 29.75 26.291 29.75 27.4833Z" fill="#12131A"/>
</svg>
