<?xml version="1.0" encoding="UTF-8"?>
<!DOCTYPE svg PUBLIC "-//W3C//DTD SVG 1.1//EN" "http://www.w3.org/Graphics/SVG/1.1/DTD/svg11.dtd">
<svg xmlns="http://www.w3.org/2000/svg" version="1.1" width="512px" height="512px" style="shape-rendering:geometricPrecision; text-rendering:geometricPrecision; image-rendering:optimizeQuality; fill-rule:evenodd; clip-rule:evenodd" xmlns:xlink="http://www.w3.org/1999/xlink">
<g><path style="opacity:0.978" fill="#000000" d="M 466.5,-0.5 C 472.167,-0.5 477.833,-0.5 483.5,-0.5C 497.86,3.85957 507.193,13.1929 511.5,27.5C 511.5,33.1667 511.5,38.8333 511.5,44.5C 509.272,51.4464 505.605,57.6131 500.5,63C 363.667,193.833 226.833,324.667 90,455.5C 89.3172,475.514 79.4839,488.681 60.5,495C 44.5671,501.032 28.5671,506.532 12.5,511.5C 9.5,511.5 6.5,511.5 3.5,511.5C 2.16667,510.167 0.833333,508.833 -0.5,507.5C -0.5,504.5 -0.5,501.5 -0.5,498.5C 4.46787,482.433 9.96787,466.433 16,450.5C 22.3231,431.511 35.4897,421.678 55.5,421C 188.191,281.977 321.191,143.31 454.5,5C 458.475,2.85371 462.475,1.02038 466.5,-0.5 Z"/></g>
</svg>
