<svg width="24" height="24" viewBox="0 0 24 24" fill="none" xmlns="http://www.w3.org/2000/svg">
<path fill-rule="evenodd" clip-rule="evenodd" d="M23.6476 3.24602C23.7454 3.33632 23.8264 3.44749 23.886 3.57316C23.9457 3.69884 23.9828 3.83656 23.9953 3.97845C24.0078 4.12035 23.9954 4.26363 23.9588 4.40011C23.9222 4.53659 23.8622 4.66359 23.7822 4.77385L15.1348 16.71C15.0498 16.8272 14.9441 16.923 14.8243 16.9912C14.7046 17.0594 14.5735 17.0985 14.4396 17.1061C14.3056 17.1137 14.1718 17.0895 14.0466 17.0351C13.9214 16.9807 13.8077 16.8973 13.7128 16.7903L8.74155 11.176L1.71607 22.0857C1.56238 22.3064 1.33892 22.4512 1.09266 22.4897C0.846391 22.5283 0.596489 22.4575 0.395467 22.2923C0.194444 22.1271 0.0579511 21.8803 0.014673 21.6038C-0.0286052 21.3273 0.0246996 21.0426 0.163387 20.8096L7.84991 8.87339C7.9315 8.74646 8.03648 8.64102 8.15762 8.56433C8.27877 8.48763 8.41319 8.4415 8.55163 8.42913C8.69008 8.41675 8.82926 8.43842 8.95958 8.49263C9.0899 8.54685 9.20826 8.63233 9.30651 8.74318L14.32 14.4074L22.2948 3.39794C22.3748 3.28758 22.4732 3.1961 22.5845 3.12874C22.6958 3.06137 22.8177 3.01943 22.9434 3.00532C23.069 2.99122 23.1959 3.00521 23.3167 3.04651C23.4376 3.08781 23.55 3.15561 23.6476 3.24602Z" fill="#212529"/>
</svg>
