<svg width="24" height="24" viewBox="0 0 24 24" fill="none" xmlns="http://www.w3.org/2000/svg">
<g clip-path="url(#clip0_9_199179)">
<path d="M40.5 14.2501C41.7426 14.2501 42.75 13.2427 42.75 12.0001C42.75 10.7574 41.7426 9.75007 40.5 9.75007C39.2574 9.75007 38.25 10.7574 38.25 12.0001C38.25 13.2427 39.2574 14.2501 40.5 14.2501Z" fill="#212529"/>
<path d="M19.5 1.50007C20.2956 1.50007 21.75 1.50007 22.5 1.50007C22.5 2.25 22.5 3.70442 22.5 4.50007V19.5001C22.5 20.2957 22.5 21.7501 22.5 22.5001C21.75 22.5001 20.2956 22.5001 19.5 22.5001H4.5C3.70435 22.5001 2.25001 22.5001 1.50001 22.5001C1.50001 21.7501 1.5 20.2957 1.5 19.5001V4.50007C1.5 3.70442 1.50003 2.25 1.50003 1.5C2.25003 1.50007 3.70435 1.50007 4.5 1.50007H12H19.5ZM4.5 7.27575e-05C3.30653 7.27575e-05 0.750031 2.48492e-07 2.36034e-05 2.48492e-07C3.14713e-05 0.75 0 3.3066 0 4.50007V19.5001C0 20.6935 0 23.2501 0 24.0001C2.25 24.0001 3.30653 24.0001 4.5 24.0001H19.5C20.6935 24.0001 23.25 24.0001 24 24.0001C24 22.5001 24 20.6935 24 19.5001V4.50007C24 3.3066 24 1.5 24 2.48492e-07C23.25 0 20.6935 7.27575e-05 19.5 7.27575e-05H4.5Z" fill="#212529"/>
</g>
<defs>
<clipPath id="clip0_9_199179">
<rect width="24" height="24" fill="white"/>
</clipPath>
</defs>
</svg>
