<?xml version="1.0" encoding="UTF-8"?>
<!DOCTYPE svg PUBLIC "-//W3C//DTD SVG 1.1//EN" "http://www.w3.org/Graphics/SVG/1.1/DTD/svg11.dtd">
<svg xmlns="http://www.w3.org/2000/svg" version="1.1" width="512px" height="512px" style="shape-rendering:geometricPrecision; text-rendering:geometricPrecision; image-rendering:optimizeQuality; fill-rule:evenodd; clip-rule:evenodd" xmlns:xlink="http://www.w3.org/1999/xlink">
<g><path style="opacity:0.985" fill="#000000" d="M 489.5,-0.5 C 494.167,-0.5 498.833,-0.5 503.5,-0.5C 507.167,1.16667 509.833,3.83333 511.5,7.5C 511.5,12.1667 511.5,16.8333 511.5,21.5C 505.242,39.0174 497.075,55.684 487,71.5C 472.315,94.2036 456.649,116.204 440,137.5C 389.811,200.372 336.645,260.872 280.5,319C 279.833,319.667 279.167,319.667 278.5,319C 249.667,290.167 220.833,261.333 192,232.5C 191.333,231.833 191.333,231.167 192,230.5C 250.128,174.355 310.628,121.189 373.5,71C 394.796,54.3512 416.796,38.6845 439.5,24C 455.316,13.9247 471.983,5.758 489.5,-0.5 Z"/></g>
<g><path style="opacity:0.968" fill="#000000" d="M 168.5,256.5 C 197.763,284.095 226.429,312.429 254.5,341.5C 238.427,353.954 221.593,365.287 204,375.5C 180.5,353.333 157.667,330.5 135.5,307C 145.893,289.699 156.893,272.866 168.5,256.5 Z"/></g>
<g><path style="opacity:0.963" fill="#000000" d="M 109.5,511.5 C 108.5,511.5 107.5,511.5 106.5,511.5C 99.9919,504.825 93.6586,497.992 87.5,491C 97.9576,479.541 108.791,468.375 120,457.5C 120.667,456.833 120.667,456.167 120,455.5C 112.986,448.319 105.819,441.319 98.5,434.5C 87.3474,445.152 76.3474,455.986 65.5,467C 64.5,467.667 63.5,467.667 62.5,467C 55.7888,460.624 49.4554,453.957 43.5,447C 54.3051,435.36 65.3051,423.86 76.5,412.5C 69.5,404.833 62.1667,397.5 54.5,390.5C 43.1395,401.695 31.6395,412.695 20,423.5C 13.0079,417.341 6.1746,411.008 -0.5,404.5C -0.5,403.5 -0.5,402.5 -0.5,401.5C 37.4437,379.192 75.1104,356.358 112.5,333C 113.5,332.333 114.5,332.333 115.5,333C 136.874,354.04 157.874,375.374 178.5,397C 155.107,434.957 132.107,473.124 109.5,511.5 Z"/></g>
</svg>
