<svg width="23" height="25" viewBox="0 0 23 25" fill="none" xmlns="http://www.w3.org/2000/svg">
<g clip-path="url(#clip0_2113_89)">
<path d="M20.7 6.84531C21.005 6.84531 21.2975 6.96647 21.5132 7.18214C21.7288 7.39781 21.85 7.69031 21.85 7.99531V21.7953C21.85 22.1003 21.7288 22.3928 21.5132 22.6085C21.2975 22.8242 21.005 22.9453 20.7 22.9453H6.90001C6.59501 22.9453 6.3025 22.8242 6.08683 22.6085C5.87117 22.3928 5.75001 22.1003 5.75001 21.7953V7.99531C5.75001 7.69031 5.87117 7.39781 6.08683 7.18214C6.3025 6.96647 6.59501 6.84531 6.90001 6.84531H20.7ZM6.90001 5.69531C6.29001 5.69531 5.70499 5.93763 5.27366 6.36897C4.84233 6.8003 4.60001 7.38531 4.60001 7.99531L4.60001 21.7953C4.60001 22.4053 4.84233 22.9903 5.27366 23.4217C5.70499 23.853 6.29001 24.0953 6.90001 24.0953H20.7C21.31 24.0953 21.895 23.853 22.3264 23.4217C22.7577 22.9903 23 22.4053 23 21.7953V7.99531C23 7.38531 22.7577 6.8003 22.3264 6.36897C21.895 5.93763 21.31 5.69531 20.7 5.69531H6.90001Z" fill="#212529"/>
</g>
<g clip-path="url(#clip1_2113_89)">
<path d="M0 2.3C0 1.69 0.242321 1.10499 0.673654 0.673654C1.10499 0.242321 1.69 0 2.3 0L16.1 0C16.71 0 17.295 0.242321 17.7263 0.673654C18.1577 1.10499 18.4 1.69 18.4 2.3V16.1C18.4 16.71 18.1577 17.295 17.7263 17.7263C17.295 18.1577 16.71 18.4 16.1 18.4H2.3C1.69 18.4 1.10499 18.1577 0.673654 17.7263C0.242321 17.295 0 16.71 0 16.1V2.3Z" fill="white"/>
<g clip-path="url(#clip2_2113_89)">
<path d="M16.1 1.15C16.405 1.15 16.6975 1.27116 16.9132 1.48683C17.1288 1.70249 17.25 1.995 17.25 2.3V16.1C17.25 16.405 17.1288 16.6975 16.9132 16.9132C16.6975 17.1288 16.405 17.25 16.1 17.25H2.3C1.995 17.25 1.70249 17.1288 1.48683 16.9132C1.27116 16.6975 1.15 16.405 1.15 16.1V2.3C1.15 1.995 1.27116 1.70249 1.48683 1.48683C1.70249 1.27116 1.995 1.15 2.3 1.15H16.1ZM2.3 0C1.69 0 1.10499 0.242321 0.673654 0.673654C0.242321 1.10499 0 1.69 0 2.3L0 16.1C0 16.71 0.242321 17.295 0.673654 17.7263C1.10499 18.1577 1.69 18.4 2.3 18.4H16.1C16.71 18.4 17.295 18.1577 17.7263 17.7263C18.1577 17.295 18.4 16.71 18.4 16.1V2.3C18.4 1.69 18.1577 1.10499 17.7263 0.673654C17.295 0.242321 16.71 0 16.1 0L2.3 0Z" fill="#212529"/>
</g>
</g>
<g clip-path="url(#clip3_2113_89)">
<path d="M2.3 4.02529C2.3 3.56779 2.48174 3.12903 2.80524 2.80553C3.12874 2.48203 3.5675 2.30029 4.025 2.30029H14.375C14.8325 2.30029 15.2713 2.48203 15.5948 2.80553C15.9183 3.12903 16.1 3.56779 16.1 4.02529V14.3753C16.1 14.8328 15.9183 15.2716 15.5948 15.5951C15.2713 15.9186 14.8325 16.1003 14.375 16.1003H4.025C3.5675 16.1003 3.12874 15.9186 2.80524 15.5951C2.48174 15.2716 2.3 14.8328 2.3 14.3753V4.02529Z" fill="white"/>
<g clip-path="url(#clip4_2113_89)">
<path d="M14.375 3.16279C14.6038 3.16279 14.8231 3.25366 14.9849 3.41541C15.1466 3.57716 15.2375 3.79654 15.2375 4.02529V14.3753C15.2375 14.604 15.1466 14.8234 14.9849 14.9852C14.8231 15.1469 14.6038 15.2378 14.375 15.2378H4.025C3.79625 15.2378 3.57687 15.1469 3.41512 14.9852C3.25337 14.8234 3.1625 14.604 3.1625 14.3753V4.02529C3.1625 3.79654 3.25337 3.57716 3.41512 3.41541C3.57687 3.25366 3.79625 3.16279 4.025 3.16279H14.375ZM4.025 2.30029C3.5675 2.30029 3.12874 2.48203 2.80524 2.80553C2.48174 3.12903 2.3 3.56779 2.3 4.02529L2.3 14.3753C2.3 14.8328 2.48174 15.2716 2.80524 15.5951C3.12874 15.9186 3.5675 16.1003 4.025 16.1003H14.375C14.8325 16.1003 15.2713 15.9186 15.5948 15.5951C15.9183 15.2716 16.1 14.8328 16.1 14.3753V4.02529C16.1 3.56779 15.9183 3.12903 15.5948 2.80553C15.2713 2.48203 14.8325 2.30029 14.375 2.30029H4.025Z" fill="#212529"/>
</g>
</g>
<defs>
<clipPath id="clip0_2113_89">
<rect width="18.4" height="18.4" fill="white" transform="translate(4.60001 5.69531)"/>
</clipPath>
<clipPath id="clip1_2113_89">
<rect width="18.4" height="18.4" fill="white"/>
</clipPath>
<clipPath id="clip2_2113_89">
<rect width="18.4" height="18.4" fill="white"/>
</clipPath>
<clipPath id="clip3_2113_89">
<rect width="13.8" height="13.8" fill="white" transform="translate(2.3 2.30029)"/>
</clipPath>
<clipPath id="clip4_2113_89">
<rect width="13.8" height="13.8" fill="white" transform="translate(2.3 2.30029)"/>
</clipPath>
</defs>
</svg>
