<svg width="24" height="24" viewBox="0 0 24 24" fill="none" xmlns="http://www.w3.org/2000/svg">
<path fill-rule="evenodd" clip-rule="evenodd" d="M15.969 0.968876C16.0387 0.899031 16.1214 0.843617 16.2126 0.805807C16.3037 0.767997 16.4014 0.748535 16.5 0.748535C16.5987 0.748535 16.6963 0.767997 16.7875 0.805807C16.8786 0.843617 16.9613 0.899031 17.031 0.968876L23.031 6.96888C23.1009 7.03854 23.1563 7.12131 23.1941 7.21242C23.2319 7.30354 23.2514 7.40122 23.2514 7.49988C23.2514 7.59853 23.2319 7.69621 23.1941 7.78733C23.1563 7.87844 23.1009 7.96121 23.031 8.03088L20.178 10.8839L18.9345 15.8534C18.8399 16.2318 18.6486 16.5791 18.3794 16.8613C18.1101 17.1434 17.7721 17.3507 17.3985 17.4629L1.88101 22.1189L6.53701 6.59988C6.64924 6.22677 6.85643 5.88919 7.1383 5.62021C7.42017 5.35122 7.76706 5.16004 8.14501 5.06538L13.1145 3.82338L15.969 0.968876ZM13.269 5.33088L8.50951 6.52038C8.38317 6.55191 8.26722 6.61579 8.17306 6.70574C8.0789 6.79569 8.00978 6.90861 7.97251 7.03338L4.11751 19.8809L16.968 16.0259C17.092 15.9883 17.2042 15.9192 17.2936 15.8254C17.383 15.7315 17.4465 15.6161 17.478 15.4904L18.669 10.7294L13.269 5.33088Z" fill="#212529"/>
<path fill-rule="evenodd" clip-rule="evenodd" d="M4.24801 19.8419L12 13.4999C12.2967 13.4999 12.5867 13.4119 12.8334 13.2471C13.08 13.0823 13.2723 12.848 13.3858 12.5739C13.4994 12.2998 13.5291 11.9982 13.4712 11.7072C13.4133 11.4163 13.2705 11.149 13.0607 10.9392C12.8509 10.7294 12.5836 10.5866 12.2926 10.5287C12.0017 10.4708 11.7001 10.5005 11.426 10.6141C11.1519 10.7276 10.9176 10.9198 10.7528 11.1665C10.588 11.4132 10.5 11.7032 10.5 11.9999L4.15801 19.7519L4.11901 19.8809L4.24801 19.8419Z" fill="#212529"/>
</svg>
