<svg width="24" height="19" viewBox="0 0 24 19" fill="none" xmlns="http://www.w3.org/2000/svg">
<path fill-rule="evenodd" clip-rule="evenodd" d="M23.6476 0.239714C23.7454 0.327699 23.8264 0.436014 23.886 0.558467C23.9457 0.68092 23.9828 0.815109 23.9953 0.953364C24.0078 1.09162 23.9954 1.23123 23.9588 1.36421C23.9222 1.49719 23.8622 1.62093 23.7822 1.72837L15.1348 13.3585C15.0498 13.4727 14.9441 13.566 14.8243 13.6324C14.7046 13.6989 14.5735 13.737 14.4396 13.7444C14.3056 13.7518 14.1718 13.7282 14.0466 13.6752C13.9214 13.6222 13.8077 13.541 13.7128 13.4367L8.74155 7.96635L1.71607 18.5963C1.56238 18.8113 1.33892 18.9525 1.09266 18.99C0.846391 19.0275 0.596489 18.9586 0.395467 18.7976C0.194444 18.6366 0.0579511 18.3962 0.014673 18.1268C-0.0286052 17.8574 0.0246996 17.58 0.163387 17.3529L7.84991 5.72279C7.9315 5.59912 8.03648 5.49638 8.15762 5.42165C8.27877 5.34692 8.41319 5.30198 8.55163 5.28992C8.69008 5.27786 8.82926 5.29897 8.95958 5.3518C9.0899 5.40462 9.20826 5.48791 9.30651 5.59592L14.32 11.1149L22.2948 0.387734C22.3748 0.280207 22.4732 0.191076 22.5845 0.125436C22.6958 0.0597963 22.8177 0.0189351 22.9434 0.00518819C23.069 -0.00855872 23.1959 0.00507817 23.3167 0.0453197C23.4376 0.0855613 23.55 0.151618 23.6476 0.239714Z" fill="#212529"/>
</svg>
