<svg width="24" height="24" viewBox="0 0 24 24" fill="none" xmlns="http://www.w3.org/2000/svg">
<g clip-path="url(#clip0_9_197210)">
<path d="M11.907 3.02417C11.9364 3.00805 11.9695 2.99978 12.003 3.00017C12.036 3.00004 12.0685 3.0083 12.0975 3.02417C12.1318 3.04474 12.1598 3.07431 12.1785 3.10967L22.464 20.6102C22.518 20.7002 22.5165 20.7962 22.467 20.8847C22.448 20.921 22.4201 20.9519 22.386 20.9747C22.3563 20.9929 22.3218 21.0018 22.287 21.0002H1.719C1.68418 21.0019 1.64966 20.993 1.62 20.9747C1.58588 20.9519 1.55803 20.921 1.539 20.8847C1.51428 20.843 1.50149 20.7954 1.50201 20.747C1.50254 20.6986 1.51638 20.6513 1.542 20.6102L11.826 3.10967C11.8447 3.07435 11.8727 3.0448 11.907 3.02417V3.02417ZM13.473 2.34917C13.3245 2.09052 13.1104 1.87562 12.8523 1.72618C12.5942 1.57674 12.3012 1.49805 12.003 1.49805C11.7048 1.49805 11.4118 1.57674 11.1537 1.72618C10.8956 1.87562 10.6815 2.09052 10.533 2.34917L0.247499 19.8497C-0.438001 21.0167 0.383999 22.5002 1.7175 22.5002H22.287C23.6205 22.5002 24.444 21.0152 23.757 19.8497L13.473 2.34917Z" fill="#212529"/>
</g>
<defs>
<clipPath id="clip0_9_197210">
<rect width="24" height="24" fill="white"/>
</clipPath>
</defs>
</svg>
