<svg width="32" height="30" viewBox="0 0 32 30" fill="none" xmlns="http://www.w3.org/2000/svg">
<path d="M20.8334 15C20.8334 17.4554 18.7003 19.5 16 19.5C13.2998 19.5 11.1667 17.4554 11.1667 15C11.1667 12.5446 13.2998 10.5 16 10.5C18.7003 10.5 20.8334 12.5446 20.8334 15Z" stroke="#333333"/>
<path d="M27.1058 13.8848C27.532 14.3814 27.7451 14.6297 27.7451 15C27.7451 15.3703 27.532 15.6186 27.1058 16.1152C25.3123 18.2047 21.0155 22.5 16 22.5C10.9845 22.5 6.68769 18.2047 4.89423 16.1152C4.46798 15.6186 4.25486 15.3703 4.25486 15C4.25486 14.6297 4.46798 14.3814 4.89423 13.8848C6.68769 11.7953 10.9845 7.5 16 7.5C21.0155 7.5 25.3123 11.7953 27.1058 13.8848Z" stroke="#333333"/>
</svg>
