<svg xmlns="http://www.w3.org/2000/svg" width="1000" height="1000" viewbox="0 0 1000 1000"><circle fill="rgba(0, 0, 0, 1)" stroke="#000000" stroke-width="2" data-tool="true" cx="466" cy="249" r="127.1416532848303" id="animatedElementId"></circle><path stroke="#8DADFF" stroke-width="2" fill="none" id="motionPath" d="M 825 166 L 813 178 L 795 196 L 772 220 L 759 233 L 746 245 L 736 255 L 730 263 L 725 268 L 718 275 L 714 281 L 710 288 L 704 296 L 701 302 L 696 308 L 691 314 L 685 321 L 681 327 L 676 337 L 671 345 L 668 351 L 664 355 L 661 360 L 658 365 L 654 369 L 652 374 L 648 377 L 645 380 L 640 384 L 636 388 L 633 390 L 629 393 L 624 396 L 623 397 L 621 398 L 619 398 L 617 398 L 616 398 L 615 398 L 614 398 L 613 396 L 613 394 L 613 391 L 613 387 L 615 381 L 618 375 L 621 371 L 624 367 L 628 362 L 633 360 L 636 357 L 642 355 L 647 353 L 651 351 L 657 351 L 664 350 L 672 350 L 681 350 L 688 351 L 695 353 L 702 356 L 708 359 L 714 362 L 719 365 L 722 368 L 725 370 L 729 373 L 731 376 L 734 377 L 735 378 L 736 379 L 738 379 L 738 380 L 739 380 L 740 381 L 741 381 L 742 381 L 743 381 L 745 381 L 747 381 L 752 379 L 756 379 L 762 376 L 767 375 L 775 372 L 779 369 L 784 368 L 785 367 L 787 367 L 788 366 L 788 365 L 790 365 L 791 365 L 792 364 L 793 364 L 796 363 L 798 362 L 799 360 L 802 358 L 805 357 L 807 354"></path><script>
            <![CDATA[
                this.play = true
                this.currentSpeed = 20
                let distanceCovered = 0;
                let isAnimationSaved = false;
                let isUpdateTime = false
                function animate(element) {
    const motionPath = document.getElementById('motionPath');
    const totalLength = motionPath.getTotalLength();
    distanceCovered = 0;
    let speed = this.currentSpeed;
    element.setAttribute("x", 0);
    element.setAttribute("y", 0);
    if (element.hasAttribute("r")) {
      element.setAttribute("cx", 0);
      element.setAttribute("cy", 0);
    }
    const moveAlongPath = () => {
      if (this.play) {
        const point = motionPath.getPointAtLength(distanceCovered);
        if (element.hasAttribute("d") || element.hasAttribute("points")) {
          const initialX = element.getPointAtLength(0).x;
          const initialY = element.getPointAtLength(0).y;
          element.setAttribute("transform", `translate(${point.x - initialX} ${point.y - initialY})`);
        } else {
          element.setAttribute("transform", `translate(${point.x} ${point.y})`);
        }
        speed = this.currentSpeed;
        distanceCovered += speed;
        if (distanceCovered <= totalLength) {
          requestAnimationFrame(moveAlongPath);
        } else {
          distanceCovered = 0;
          const newStartTime = Date.now();
          if (isUpdateTime) {
            _store_animationToolState__WEBPACK_IMPORTED_MODULE_1__["default"].setStartTime(newStartTime);
          }
          requestAnimationFrame(moveAlongPath);
          if (_store_animationToolState__WEBPACK_IMPORTED_MODULE_1__["default"].isAnimationSaved) {
            console.log("isSave");
            this.saveAnimatedSvg();
            _store_animationToolState__WEBPACK_IMPORTED_MODULE_1__["default"].isAnimationSaved = false;
          }
        }
        motionPath.style.display = "none";
      } else {
        requestAnimationFrame(moveAlongPath);
        motionPath.style.display = "block";
      }
    };
    moveAlongPath();
  }
                const animatedElement = document.getElementById('animatedElementId');
                animate(animatedElement);
            ]]>
        </script></svg>