<svg xmlns="http://www.w3.org/2000/svg" width="1000" height="1000" viewbox="0 0 1000 1000"><circle fill="rgba(227, 38, 38, 1)" stroke="#000000" stroke-width="2" data-tool="true" cx="206" cy="112" r="103.23274674249446" id="animatedElementId"></circle><path stroke="#8DADFF" stroke-width="2" fill="none" id="motionPath" d="M 261 350 L 261 349 L 261 345 L 261 340 L 262 334 L 265 326 L 272 319 L 289 307 L 320 293 L 361 283 L 418 276 L 480 275 L 544 274 L 616 272 L 670 266 L 717 257 L 750 242 L 764 230 L 766 220 L 760 207 L 746 200 L 728 195 L 704 197 L 684 207 L 667 217 L 660 228 L 661 233 L 666 238 L 683 246 L 708 259 L 747 274 L 793 291 L 829 305 L 850 315 L 870 326"></path><script>
            <![CDATA[
                this.play = true
                this.currentSpeed = 20
                let distanceCovered = 0;
                let isAnimationSaved = false;
                let isUpdateTime = false
                function animate(element) {
    const motionPath = document.getElementById('motionPath');
    const totalLength = motionPath.getTotalLength();
    distanceCovered = 0;
    let speed = this.currentSpeed;
    element.setAttribute("x", 0);
    element.setAttribute("y", 0);
    if (element.hasAttribute("r")) {
      element.setAttribute("cx", 0);
      element.setAttribute("cy", 0);
    }
    const moveAlongPath = () => {
      if (this.play) {
        const point = motionPath.getPointAtLength(distanceCovered);
        if (element.hasAttribute("d") || element.hasAttribute("points")) {
          const initialX = element.getPointAtLength(0).x;
          const initialY = element.getPointAtLength(0).y;
          element.setAttribute("transform", `translate(${point.x - initialX} ${point.y - initialY})`);
        } else {
          element.setAttribute("transform", `translate(${point.x} ${point.y})`);
        }
        speed = this.currentSpeed;
        distanceCovered += speed;
        if (distanceCovered <= totalLength) {
          requestAnimationFrame(moveAlongPath);
        } else {
          distanceCovered = 0;
          const newStartTime = Date.now();
          if (isUpdateTime) {
            _store_animationToolState__WEBPACK_IMPORTED_MODULE_1__["default"].setStartTime(newStartTime);
          }
          requestAnimationFrame(moveAlongPath);
          if (_store_animationToolState__WEBPACK_IMPORTED_MODULE_1__["default"].isAnimationSaved) {
            console.log("isSave");
            this.saveAnimatedSvg();
            _store_animationToolState__WEBPACK_IMPORTED_MODULE_1__["default"].isAnimationSaved = false;
          }
        }
        motionPath.style.display = "none";
      } else {
        requestAnimationFrame(moveAlongPath);
        motionPath.style.display = "block";
      }
    };
    moveAlongPath();
  }
                const animatedElement = document.getElementById('animatedElementId');
                animate(animatedElement);
            ]]>
        </script></svg>