<svg xmlns="http://www.w3.org/2000/svg" width="1000" height="1000" viewbox="0 0 1000 1000"><path stroke="#000000" stroke-width="2" fill="none" d="M 239 95 L 240 95 L 241 95 L 242 95 L 243 95 L 243 96 L 244 97 L 244 98 L 244 99 L 244 100 L 245 100 L 245 101 L 245 102 L 245 103 L 245 104 L 246 104 L 246 105 L 246 107 L 246 108 L 247 109 L 248 111 L 248 112 L 248 113 L 248 115 L 249 116 L 250 117 L 250 119 L 250 121 L 250 123 L 251 125 L 252 127 L 253 130 L 253 132 L 254 134 L 254 136 L 255 138 L 256 140 L 256 143 L 257 145 L 258 147 L 258 149 L 260 151 L 261 153 L 262 155 L 263 156 L 264 159 L 266 160 L 266 161 L 268 163 L 269 164 L 271 166 L 271 167 L 273 169 L 274 169 L 276 170 L 277 171 L 278 171 L 280 172 L 281 173 L 282 173 L 284 173 L 285 173 L 286 173 L 287 173 L 290 173 L 292 173 L 294 173 L 296 173 L 298 173 L 300 172 L 303 171 L 305 171 L 307 170 L 309 169 L 312 168 L 316 166 L 319 164 L 322 163 L 325 161 L 328 160 L 331 158 L 334 156 L 338 155 L 341 153 L 344 151 L 348 150 L 351 148 L 354 146 L 357 145 L 361 143 L 364 141 L 367 140 L 370 138 L 373 137 L 376 135 L 378 134 L 381 133 L 383 132 L 385 131 L 387 131 L 389 130 L 391 129 L 392 128 L 393 128 L 395 128 L 396 128 L 397 128 L 398 128 L 399 128 L 400 129 L 401 129 L 401 130 L 401 131 L 402 131 L 402 132 L 402 133 L 402 134 L 402 135 L 403 135 L 404 137 L 404 138 L 404 139 L 404 141 L 405 142 L 405 143 L 406 145 L 406 146 L 407 147 L 407 148 L 408 149 L 409 151 L 410 152 L 411 152 L 411 153 L 412 153 L 412 154 L 413 155 L 414 156 L 415 156 L 416 156 L 417 157 L 418 157 L 419 157 L 420 157 L 421 157 L 422 157 L 423 157 L 424 157 L 425 157 L 427 157 L 428 156 L 429 156 L 431 155 L 432 155 L 433 154 L 435 154 L 436 153 L 437 153 L 439 152 L 440 152" data-tool="true" id="animatedElementId"></path><path stroke="#8DADFF" stroke-width="2" fill="none" id="motionPath" d="M 287 320 L 287 319 L 288 319 L 288 318 L 289 317 L 290 316 L 291 315 L 292 315 L 292 314 L 293 313 L 294 312 L 295 311 L 296 310 L 296 309 L 297 308 L 298 306 L 299 305 L 300 303 L 301 302 L 302 301 L 303 300 L 304 299 L 305 299 L 306 298 L 307 296 L 309 295 L 310 294 L 312 293 L 313 291 L 314 290 L 316 288 L 318 287 L 320 285 L 323 284 L 325 282 L 327 281 L 329 279 L 333 277 L 336 275 L 339 274 L 343 271 L 346 268 L 350 266 L 354 263 L 359 260 L 364 257 L 368 255 L 372 253 L 376 250 L 381 247 L 385 246 L 390 243 L 395 241 L 399 239 L 404 237 L 408 236 L 413 234 L 417 232 L 422 230 L 426 228 L 431 227 L 435 226 L 440 225 L 444 224 L 447 223 L 450 222 L 453 222 L 456 222 L 459 222 L 462 222 L 465 222 L 467 222 L 469 222 L 471 222 L 474 222 L 476 222 L 478 222 L 480 222 L 481 223 L 483 223 L 484 224 L 486 225 L 487 225 L 488 226 L 490 227 L 491 227 L 492 228 L 492 229 L 493 229 L 493 230 L 494 230 L 494 231 L 496 232 L 497 233 L 498 234 L 499 234 L 499 235 L 500 236 L 501 237 L 503 239 L 505 240 L 506 241 L 507 241 L 508 242 L 510 243 L 511 244 L 512 244 L 514 245 L 515 246 L 516 246 L 518 246 L 519 246 L 520 246 L 521 246 L 523 246 L 524 246 L 525 246 L 528 246 L 530 245 L 531 244 L 533 244 L 535 243 L 538 242 L 540 241 L 542 241 L 544 240 L 547 239 L 551 238 L 554 236 L 557 234 L 561 233 L 564 231 L 568 229 L 572 228 L 576 225 L 581 222 L 586 219 L 590 216 L 595 214 L 600 211 L 604 208 L 609 205 L 614 202 L 618 200 L 623 197 L 628 194 L 632 191 L 636 188 L 639 186 L 644 183 L 649 180 L 652 178 L 656 175 L 660 172 L 664 171 L 667 169 L 670 167 L 674 166 L 677 164 L 680 162 L 682 161 L 685 159 L 687 159 L 689 158 L 691 157 L 693 156 L 695 156 L 696 155 L 698 154 L 699 154 L 700 154 L 701 154 L 703 154 L 704 154 L 705 154 L 706 154 L 707 154 L 708 154 L 709 154 L 710 154 L 711 154 L 712 154 L 714 154 L 715 154 L 717 154 L 718 154 L 719 154 L 721 153 L 722 152 L 724 152 L 725 152 L 726 151 L 728 150 L 729 150 L 731 149 L 733 148 L 735 148 L 736 147 L 738 146 L 740 145 L 741 145 L 743 144 L 744 143 L 745 143 L 747 142"></path><script>
            <![CDATA[
                this.play = true
                this.currentSpeed = 20
                let distanceCovered = 0;
                let isAnimationSaved = false;
                let isUpdateTime = false
                function animate(element) {
    const motionPath = document.getElementById('motionPath');
    const totalLength = motionPath.getTotalLength();
    distanceCovered = 0;
    let speed = this.currentSpeed;
    element.setAttribute("x", 0);
    element.setAttribute("y", 0);
    if (element.hasAttribute("r")) {
      element.setAttribute("cx", 0);
      element.setAttribute("cy", 0);
    }
    const moveAlongPath = () => {
      if (this.play) {
        const point = motionPath.getPointAtLength(distanceCovered);
        if (element.hasAttribute("d") || element.hasAttribute("points")) {
          const initialX = element.getPointAtLength(0).x;
          const initialY = element.getPointAtLength(0).y;
          element.setAttribute("transform", `translate(${point.x - initialX} ${point.y - initialY})`);
        } else {
          element.setAttribute("transform", `translate(${point.x} ${point.y})`);
        }
        speed = this.currentSpeed;
        distanceCovered += speed;
        if (distanceCovered <= totalLength) {
          requestAnimationFrame(moveAlongPath);
        } else {
          distanceCovered = 0;
          const newStartTime = Date.now();
          if (isUpdateTime) {
            _store_animationToolState__WEBPACK_IMPORTED_MODULE_1__["default"].setStartTime(newStartTime);
          }
          requestAnimationFrame(moveAlongPath);
          if (_store_animationToolState__WEBPACK_IMPORTED_MODULE_1__["default"].isAnimationSaved) {
            console.log("isSave");
            this.saveAnimatedSvg();
            _store_animationToolState__WEBPACK_IMPORTED_MODULE_1__["default"].isAnimationSaved = false;
          }
        }
        motionPath.style.display = "none";
      } else {
        requestAnimationFrame(moveAlongPath);
        motionPath.style.display = "block";
      }
    };
    moveAlongPath();
  }
                const animatedElement = document.getElementById('animatedElementId');
                animate(animatedElement);
            ]]>
        </script></svg>