<svg xmlns="http://www.w3.org/2000/svg" width="1000" height="1000" viewbox="0 0 1000 1000"><rect stroke="#000000" stroke-width="2" fill="rgba(0, 0, 0, 1)" data-tool="true" x="171" y="106" width="59" height="36" id="animatedElementId"></rect><path stroke="#8DADFF" stroke-width="2" fill="none" id="motionPath" d="M 820 117 L 819 118 L 818 118 L 816 118 L 815 118 L 814 119 L 813 119 L 811 119 L 810 119 L 809 119 L 807 119 L 806 119 L 805 120 L 803 120 L 802 120 L 800 120 L 799 120 L 797 120 L 794 121 L 792 122 L 790 122 L 788 122 L 785 123 L 782 124 L 779 125 L 776 126 L 771 126 L 767 127 L 762 129 L 758 131 L 753 133 L 749 135 L 743 136 L 737 138 L 731 140 L 726 142 L 720 144 L 714 147 L 708 150 L 702 153 L 695 156 L 688 159 L 681 162 L 674 165 L 667 168 L 659 172 L 652 177 L 645 181 L 636 185 L 629 189 L 623 192 L 617 195 L 611 198 L 604 201 L 597 204 L 591 207 L 584 210 L 577 213 L 570 216 L 563 219 L 557 222 L 551 224 L 545 226 L 539 228 L 534 229 L 528 230 L 523 231 L 517 232 L 511 233 L 507 233 L 503 233 L 499 234 L 493 234 L 489 234 L 484 234 L 479 234 L 474 234 L 470 234 L 464 235 L 460 236 L 455 236 L 449 237 L 445 238 L 440 239 L 436 240 L 432 241 L 427 242 L 423 243 L 418 245 L 414 247 L 409 249 L 405 251 L 401 252 L 397 254 L 392 257 L 388 259 L 384 261 L 381 264 L 376 267 L 373 269 L 368 271 L 365 273 L 360 276 L 357 278 L 353 280 L 350 281 L 347 283 L 343 285 L 340 286 L 337 288 L 333 290 L 331 290 L 329 291 L 327 292 L 325 293 L 323 293 L 320 293 L 319 293 L 317 293 L 316 292 L 314 292 L 312 291 L 311 290 L 308 289 L 307 289 L 305 288 L 303 287 L 301 286 L 299 285 L 298 284 L 295 282 L 293 281 L 292 280 L 290 279 L 289 278 L 287 276 L 285 275 L 284 273 L 283 273 L 281 271 L 280 271 L 278 270 L 277 269 L 276 269 L 274 268 L 273 267 L 272 267 L 271 266 L 270 265 L 269 264 L 268 263 L 267 262 L 266 261"></path><script>
            <![CDATA[
                this.play = true
                this.currentSpeed = 20
                let distanceCovered = 0;
                let isAnimationSaved = false;
                let isUpdateTime = false
                function animate(element) {
    const motionPath = document.getElementById('motionPath');
    const totalLength = motionPath.getTotalLength();
    distanceCovered = 0;
    let speed = this.currentSpeed;
    element.setAttribute("x", 0);
    element.setAttribute("y", 0);
    if (element.hasAttribute("r")) {
      element.setAttribute("cx", 0);
      element.setAttribute("cy", 0);
    }
    const moveAlongPath = () => {
      if (this.play) {
        const point = motionPath.getPointAtLength(distanceCovered);
        if (element.hasAttribute("d") || element.hasAttribute("points")) {
          const initialX = element.getPointAtLength(0).x;
          const initialY = element.getPointAtLength(0).y;
          element.setAttribute("transform", `translate(${point.x - initialX} ${point.y - initialY})`);
        } else {
          element.setAttribute("transform", `translate(${point.x} ${point.y})`);
        }
        speed = this.currentSpeed;
        distanceCovered += speed;
        if (distanceCovered <= totalLength) {
          requestAnimationFrame(moveAlongPath);
        } else {
          distanceCovered = 0;
          const newStartTime = Date.now();
          if (isUpdateTime) {
            _store_animationToolState__WEBPACK_IMPORTED_MODULE_1__["default"].setStartTime(newStartTime);
          }
          requestAnimationFrame(moveAlongPath);
          if (_store_animationToolState__WEBPACK_IMPORTED_MODULE_1__["default"].isAnimationSaved) {
            console.log("isSave");
            this.saveAnimatedSvg();
            _store_animationToolState__WEBPACK_IMPORTED_MODULE_1__["default"].isAnimationSaved = false;
          }
        }
        motionPath.style.display = "none";
      } else {
        requestAnimationFrame(moveAlongPath);
        motionPath.style.display = "block";
      }
    };
    moveAlongPath();
  }
                const animatedElement = document.getElementById('animatedElementId');
                animate(animatedElement);
            ]]>
        </script></svg>